<svg width="18" height="17" viewBox="0 0 18 17" fill="none" xmlns="http://www.w3.org/2000/svg">
<mask id="path-1-outside-1_483_11238" maskUnits="userSpaceOnUse" x="0.489258" y="0.82373" width="18" height="16" fill="black">
<rect fill="white" x="0.489258" y="0.82373" width="18" height="16"/>
<path d="M15.2501 8.97657L9.00009 15.1666L2.75009 8.97657C2.33784 8.57541 2.01312 8.09325 1.79638 7.56043C1.57963 7.02762 1.47556 6.45569 1.4907 5.88068C1.50585 5.30567 1.63989 4.74002 1.88439 4.21935C2.12888 3.69868 2.47853 3.23428 2.91133 2.85539C3.34412 2.47649 3.85068 2.19131 4.3991 2.0178C4.94752 1.8443 5.52593 1.78622 6.09789 1.84724C6.66986 1.90825 7.223 2.08703 7.72248 2.37233C8.22196 2.65762 8.65696 3.04324 9.00009 3.5049C9.3447 3.04659 9.7802 2.66434 10.2793 2.38207C10.7785 2.09981 11.3305 1.92361 11.9009 1.8645C12.4712 1.8054 13.0477 1.86465 13.5941 2.03856C14.1405 2.21247 14.6451 2.4973 15.0764 2.87521C15.5077 3.25311 15.8563 3.71597 16.1004 4.23481C16.3446 4.75365 16.479 5.31731 16.4953 5.89049C16.5117 6.46368 16.4095 7.03406 16.1952 7.56594C15.9809 8.09783 15.6592 8.57975 15.2501 8.98157"/>
</mask>
<path d="M15.9538 9.68708L16.6643 8.98339L15.2569 7.56237L14.5464 8.26606L15.9538 9.68708ZM9.00009 15.1666L8.2964 15.8771L9.00009 16.574L9.70378 15.8771L9.00009 15.1666ZM2.75009 8.97657L3.4538 8.26603L3.44749 8.25989L2.75009 8.97657ZM9.00009 3.5049L8.19749 4.10142L8.99544 5.17504L9.79935 4.10588L9.00009 3.5049ZM14.5494 8.26815L13.8359 8.96888L15.2374 10.3957L15.9508 9.69499L14.5494 8.26815ZM14.5464 8.26606L8.2964 14.4561L9.70378 15.8771L15.9538 9.68708L14.5464 8.26606ZM9.70378 14.4561L3.45378 8.26606L2.0464 9.68708L8.2964 15.8771L9.70378 14.4561ZM3.44749 8.25989C3.13418 7.95501 2.8874 7.58856 2.72267 7.18362L0.870087 7.93724C1.13885 8.59793 1.5415 9.19582 2.05269 9.69325L3.44749 8.25989ZM2.72267 7.18362C2.55794 6.77868 2.47884 6.34402 2.49036 5.90701L0.491049 5.85435C0.472268 6.56737 0.601322 7.27655 0.870087 7.93724L2.72267 7.18362ZM2.49036 5.90701C2.50187 5.47 2.60374 5.04011 2.78956 4.6444L0.979217 3.7943C0.676042 4.43992 0.509831 5.14133 0.491049 5.85435L2.49036 5.90701ZM2.78956 4.6444C2.97537 4.2487 3.24111 3.89575 3.57003 3.60779L2.25262 2.10298C1.71596 2.57281 1.28239 3.14867 0.979217 3.7943L2.78956 4.6444ZM3.57003 3.60779C3.89895 3.31983 4.28394 3.10309 4.70074 2.97123L4.09746 1.06438C3.41742 1.27953 2.78929 1.63315 2.25262 2.10298L3.57003 3.60779ZM4.70074 2.97123C5.11754 2.83936 5.55713 2.79522 5.99182 2.8416L6.20397 0.852879C5.49473 0.777221 4.7775 0.849233 4.09746 1.06438L4.70074 2.97123ZM5.99182 2.8416C6.42652 2.88797 6.84691 3.02384 7.22651 3.24066L8.21846 1.50399C7.5991 1.15023 6.91321 0.928537 6.20397 0.852879L5.99182 2.8416ZM7.22651 3.24066C7.60611 3.45748 7.93671 3.75055 8.19749 4.10142L9.80269 2.90838C9.37721 2.33592 8.83781 1.85775 8.21846 1.50399L7.22651 3.24066ZM9.79935 4.10588C10.0613 3.75756 10.3922 3.46705 10.7716 3.25253L9.78709 1.51162C9.16816 1.86162 8.62814 2.33562 8.20082 2.90393L9.79935 4.10588ZM10.7716 3.25253C11.1509 3.03801 11.5705 2.9041 12.0039 2.85918L11.7978 0.86983C11.0905 0.943124 10.406 1.16161 9.78709 1.51162L10.7716 3.25253ZM12.0039 2.85918C12.4374 2.81425 12.8755 2.85929 13.2908 2.99146L13.8974 1.08566C13.2198 0.870014 12.505 0.796536 11.7978 0.86983L12.0039 2.85918ZM13.2908 2.99146C13.706 3.12363 14.0896 3.3401 14.4173 3.62731L15.7354 2.1231C15.2006 1.65449 14.5749 1.30131 13.8974 1.08566L13.2908 2.99146ZM14.4173 3.62731C14.7451 3.91452 15.0101 4.26629 15.1956 4.66061L17.0053 3.80901C16.7025 3.16565 16.2702 2.59171 15.7354 2.1231L14.4173 3.62731ZM15.1956 4.66061C15.3812 5.05493 15.4834 5.48331 15.4957 5.91893L17.4949 5.86206C17.4747 5.15131 17.308 4.45238 17.0053 3.80901L15.1956 4.66061ZM15.4957 5.91893C15.5081 6.35455 15.4305 6.78804 15.2676 7.19227L17.1228 7.93962C17.3885 7.28008 17.5152 6.57281 17.4949 5.86206L15.4957 5.91893ZM15.2676 7.19227C15.1048 7.5965 14.8603 7.96277 14.5494 8.26815L15.9508 9.69499C16.4581 9.19674 16.8571 8.59915 17.1228 7.93962L15.2676 7.19227Z" fill="#C3D4CD" mask="url(#path-1-outside-1_483_11238)"/>
</svg>
