<svg width="728" height="536" viewBox="0 0 728 536" fill="none" xmlns="http://www.w3.org/2000/svg">
<g clip-path="url(#clip0_203_21613)">
<path d="M709.86 233.599C710.063 230.483 702.77 228.961 703.101 226.234C703.431 223.516 710.787 224.081 718.563 219.172C719.966 218.287 728.803 212.709 727.941 208.523C726.308 200.59 691.267 204.639 687.856 193.098C687.108 190.565 687.803 187.012 685.739 179.052C684.918 175.885 684.236 174.241 682.844 173.722C680.869 172.986 679.189 175.158 674.339 178.367C667.067 183.178 665.738 181.674 660.519 185.914C656.645 189.061 655.343 191.543 653.657 191.043C651.27 190.335 652.336 184.907 649.604 183.582C646.815 182.23 641.952 186.064 638.973 189.388C633.381 195.625 632.802 201.877 630.943 207.593C628.923 213.804 624.448 222.287 613.345 231.023L511.999 304.985C533.334 290.178 592.995 250.397 616.241 236.352C622.951 232.297 629.998 228.35 637.692 230.166C645.1 231.913 652.214 238.792 664.156 243.355C665.551 243.888 669.452 245.322 671.209 243.65C672.661 242.267 671.324 240.021 672.661 238.711C674.454 236.952 678.314 239.566 684.64 240.461C689.101 241.093 692.52 240.549 695.461 240.081C696.347 239.939 709.589 237.748 709.86 233.599Z" fill="#E6F6F0"/>
<path d="M538.62 191.587C537.153 190.588 534.304 193.738 533.064 192.788C531.829 191.841 534.228 188.385 534.069 183.142C534.04 182.196 533.859 176.238 531.561 175.455C527.206 173.969 519.078 192.38 512.444 190.729C510.988 190.366 509.45 188.999 504.957 187.717C503.17 187.208 502.169 187.069 501.513 187.604C500.583 188.364 501.161 189.817 501.333 193.129C501.59 198.096 500.47 198.316 501.04 202.107C501.463 204.922 502.302 206.279 501.571 206.964C500.535 207.934 498.186 205.844 496.749 206.806C495.283 207.788 495.756 211.287 496.523 213.712C497.964 218.263 500.857 220.352 503.119 222.916C505.577 225.703 508.438 230.352 509.511 238.336L516.477 309.547C515.385 294.776 513.124 253.94 512.956 238.449C512.907 233.977 513.008 229.37 516.117 226.108C519.11 222.967 524.529 221.452 530.209 216.891C530.872 216.359 532.7 214.853 532.388 213.506C532.131 212.393 530.645 212.402 530.389 211.367C530.046 209.977 532.439 208.832 534.703 205.977C536.299 203.964 537.019 202.125 537.638 200.543C537.825 200.066 540.573 192.917 538.62 191.587Z" fill="#E6F6F0"/>
<path d="M563.324 218.203L567.833 209.707L568.644 209.386C572.398 207.9 575.193 205.851 576.956 203.295C577.236 202.888 577.496 202.467 577.761 202.039C578.809 200.341 580.112 198.23 582.805 196.576C584.31 195.656 588.089 193.728 590.348 195.839C590.961 196.4 591.261 197.065 591.4 197.698C591.52 197.646 591.641 197.595 591.772 197.539C593.376 196.877 594.349 196.79 595.286 196.705C596.006 196.64 596.749 196.574 598.129 196.156C598.734 195.972 599.233 195.789 599.654 195.636C600.927 195.173 602.52 194.671 604.008 195.721C605.56 196.898 605.491 198.805 605.447 200.067C605.368 202.319 605.046 203.76 604.831 204.715C604.752 205.064 604.665 205.457 604.662 205.596C604.659 206.713 609.346 208.885 611.106 209.712C615.067 211.559 618.495 213.157 618.226 216.275C618.036 218.507 615.909 220.17 611.729 221.345C610.427 221.711 609.22 221.839 608.195 221.885C608.526 222.605 608.676 223.464 608.328 224.411C607.5 226.653 604.551 227.443 599.56 226.77C598.318 226.605 596.651 226.378 594.706 225.485C593.791 225.064 593.031 224.592 592.387 224.178C592.124 224.535 591.767 224.872 591.267 225.127C589.795 225.88 588.048 225.52 586.097 223.979C583.928 222.316 582.37 220.613 580.994 219.114C579.79 217.806 578.751 216.684 577.742 216.086C575.853 215.002 573.492 215.491 570.601 216.242L563.324 218.203Z" fill="#E6F6F0"/>
<path d="M599.507 174.032L590.167 171.815L589.651 171.11C587.265 167.846 584.58 165.655 581.666 164.594C581.203 164.425 580.731 164.28 580.251 164.132C578.347 163.546 575.979 162.818 573.7 160.626C572.431 159.4 569.612 156.224 571.076 153.498C571.462 152.761 572.027 152.301 572.603 152.005C572.522 151.903 572.442 151.798 572.355 151.686C571.31 150.297 570.978 149.376 570.659 148.489C570.414 147.807 570.161 147.104 569.408 145.871C569.078 145.331 568.774 144.893 568.519 144.525C567.75 143.407 566.862 141.989 567.497 140.28C568.24 138.476 570.096 138.059 571.325 137.782C573.518 137.287 574.99 137.235 575.966 137.2C576.323 137.189 576.724 137.173 576.858 137.141C577.937 136.861 578.844 131.764 579.196 129.847C579.973 125.538 580.645 121.808 583.722 121.278C585.923 120.896 588.067 122.537 590.262 126.293C590.944 127.463 591.374 128.601 591.679 129.584C592.289 129.079 593.08 128.716 594.082 128.813C596.455 129.048 597.965 131.707 598.581 136.718C598.738 137.964 598.942 139.639 598.573 141.751C598.399 142.745 598.137 143.603 597.901 144.332C598.311 144.497 598.727 144.757 599.1 145.178C600.2 146.414 600.295 148.2 599.303 150.482C598.249 153.007 597.002 154.951 595.905 156.666C594.948 158.164 594.129 159.457 593.808 160.587C593.241 162.694 594.312 164.859 595.77 167.473L599.507 174.032Z" fill="#E6F6F0"/>
<path d="M611.297 147.979L615.806 139.483L616.617 139.162C620.371 137.676 623.166 135.627 624.929 133.07C625.21 132.664 625.469 132.243 625.734 131.815C626.782 130.117 628.085 128.006 630.778 126.352C632.283 125.432 636.062 123.504 638.321 125.615C638.934 126.176 639.234 126.841 639.374 127.474C639.493 127.422 639.614 127.371 639.745 127.315C641.349 126.653 642.322 126.566 643.259 126.481C643.979 126.416 644.722 126.35 646.102 125.932C646.707 125.748 647.206 125.565 647.627 125.412C648.9 124.948 650.493 124.447 651.981 125.497C653.533 126.674 653.465 128.581 653.42 129.843C653.341 132.095 653.019 133.536 652.804 134.491C652.725 134.84 652.638 135.233 652.636 135.372C652.632 136.488 657.32 138.661 659.079 139.488C663.04 141.335 666.468 142.933 666.2 146.051C666.009 148.283 663.883 149.945 659.702 151.121C658.4 151.487 657.193 151.615 656.168 151.661C656.499 152.381 656.649 153.24 656.301 154.187C655.473 156.429 652.524 157.219 647.533 156.545C646.291 156.381 644.624 156.154 642.68 155.261C641.764 154.84 641.004 154.368 640.36 153.954C640.097 154.31 639.741 154.648 639.24 154.903C637.768 155.656 636.021 155.296 634.071 153.754C631.902 152.092 630.343 150.389 628.967 148.89C627.764 147.582 626.724 146.46 625.715 145.862C623.826 144.778 621.465 145.267 618.574 146.018L611.297 147.979Z" fill="#E6F6F0"/>
<path d="M514.722 306.666L513.78 304.498L511.707 303.398C511.798 303.198 511.975 302.715 512.257 301.963C513.807 297.844 518.517 285.306 527.879 266.894C534.414 254.042 541.839 241.314 549.95 229.057C558.074 216.781 564.934 207.974 570.445 200.895C574.603 195.556 578.653 190.535 582.602 185.645C593.147 172.579 603.105 160.237 612.207 145.251C614.24 141.906 618.469 134.943 619.438 125.108C619.999 119.404 619.386 113.576 617.611 107.79L622.123 106.399C624.079 112.791 624.754 119.243 624.131 125.577C623.057 136.481 618.449 144.069 616.235 147.715C606.972 162.965 596.916 175.426 586.269 188.617C582.337 193.49 578.303 198.488 574.162 203.805C568.701 210.819 561.902 219.55 553.883 231.668C545.867 243.778 538.534 256.351 532.08 269.04C522.837 287.22 518.198 299.572 516.673 303.63C515.858 305.796 515.688 306.249 514.722 306.666Z" fill="#E6F6F0"/>
<path d="M606.24 109.088C606.08 108.978 605.921 108.863 605.766 108.74C602.574 106.285 600.864 102.189 600.68 96.5667C600.598 93.9245 601.312 91.4653 602.737 86.5608C602.955 85.804 604.106 81.9938 606.45 77.2726C607.98 74.1869 608.833 73.0437 610.101 72.3858C611.509 71.6516 613.061 71.5302 614.558 71.7578C614.763 71.3505 615.066 70.9931 615.496 70.7116C617.27 69.5401 618.888 70.9642 619.771 71.7221C620.212 72.1144 620.76 72.608 621.433 73.0199C622.489 73.6723 623.246 73.7446 624.391 73.8588C625.486 73.9674 626.848 74.1023 628.523 74.8099C631.832 76.1925 633.696 78.6815 634.312 79.5013C637.56 83.797 637.394 88.5021 637.2 93.9497C637.159 95.0405 636.908 98.9426 635.395 103.49C634.304 106.771 633.361 107.914 632.506 108.659C630.754 110.193 628.895 110.484 624.416 110.867C619.733 111.273 617.385 111.474 615.58 111.337C611.383 111.013 608.748 110.81 606.24 109.088Z" fill="#E6F6F0"/>
<path d="M587.646 0H323.245C313.546 0 305.659 7.90725 305.659 17.6314V291.058C305.659 300.783 313.546 308.69 323.245 308.69H587.646C597.345 308.69 605.232 300.783 605.232 291.058V17.6314C605.232 7.90725 597.345 0 587.646 0ZM603.382 291.058C603.382 299.772 596.337 306.836 587.646 306.836H323.245C314.554 306.836 307.508 299.772 307.508 291.058V17.6314C307.508 8.9178 314.554 1.85399 323.245 1.85399H463.297C540.664 1.85399 603.382 64.7344 603.382 142.301V291.058Z" fill="#3F3D56"/>
<path d="M300.063 205.501C290.796 208.012 284.576 214.842 286.171 220.755C287.766 226.667 296.571 229.423 305.841 226.91C309.558 225.957 312.993 224.125 315.859 221.568L354.99 210.43L349.385 192.131L311.404 205.054C307.642 204.293 303.753 204.446 300.063 205.501Z" fill="#FFB6B6"/>
<path d="M464.045 150.601C464.045 150.601 475.092 166.85 450.194 179.107C425.295 191.364 379.27 208.858 379.27 208.858L315.721 223.619L306.125 202.525L381.531 181.927L442.978 147.547L464.045 150.601Z" fill="#232D30"/>
<path d="M456.652 107.353C456.37 115.055 461.9 124.198 467.748 124.386C474.782 124.612 508.036 126.986 509.105 124.221C516.527 105.022 481.572 65.1952 473.692 64.0463C469.458 63.4289 464.388 69.5241 462.438 74.5559C459.707 81.6072 463.738 84.9325 461.463 94.432C459.728 101.676 456.85 101.969 456.652 107.353Z" fill="#2F2E41"/>
<path d="M398.768 410.975L375.429 416.337L398.881 486.103L414.696 482.471L398.768 410.975Z" fill="#FFB6B6"/>
<path d="M390.429 464.346L399.456 465.674L400.847 470.522C400.847 470.522 401.148 464.355 411.118 460.129L413.709 464.468C413.709 464.468 419.046 467.911 420.771 476.445L424.601 499.528L416.763 501.613L411.012 486.448C411.012 486.448 407.847 483.547 402.814 503.167C402.814 503.167 400.776 509.76 382.284 508.996C379.742 508.891 377.506 507.191 376.828 504.733C376.454 503.377 376.619 501.975 378.18 501.035C382.153 498.643 386.773 498.867 388.555 494.616C390.338 490.364 390.429 464.346 390.429 464.346Z" fill="#184151"/>
<path d="M449.473 442.694L428.632 442.177L431.549 515.641L447.772 515.931L449.473 442.694Z" fill="#FFB6B6"/>
<path d="M428.568 492.484L437.011 495.951L437.198 500.992C437.198 500.992 438.97 495.079 449.661 493.383L451.135 498.219C451.135 498.219 455.489 502.849 455.115 511.548L453.291 534.877L445.184 535.009L443.241 518.903C443.241 518.903 440.866 515.324 431.271 533.152C431.271 533.152 427.71 539.06 409.945 533.857C407.504 533.142 405.741 530.952 405.673 528.403C405.635 526.996 406.132 525.675 407.873 525.139C412.303 523.776 416.734 525.109 419.484 521.412C422.235 517.716 428.568 492.484 428.568 492.484Z" fill="#184151"/>
<path d="M492.48 362.452L382.254 353.901L413.273 226.41L487.487 215.689L492.48 362.452Z" fill="#232D30"/>
<path d="M477.279 128.104L500.503 115.699L519.258 137.9L481.571 259.003L412.633 228.398L464.994 138.652L477.279 128.104Z" fill="#58A3C1"/>
<path d="M480.222 237.137C480.222 237.137 487.618 275.37 464.717 295.241L457.707 317.586L450.138 358.829L450.822 465.352L423.084 462.571L411.989 360.605L411.857 309.857L370.907 345.016L413.764 429.408L378.842 444.739L336.192 343.039C333.228 336.844 334.018 329.501 338.232 324.082L412.633 228.398L480.222 237.137Z" fill="#313F43"/>
<path d="M508.976 125.729L463.441 168.321C452.664 255.995 458.547 336.502 489.554 406.198L566.072 370.642C502.976 351.456 509.164 246.106 521.407 133.226L508.976 125.729Z" fill="#232D30"/>
<path d="M469.706 138.792L476.711 127.925L437.968 150.762L407.333 235.88L463.847 165.172L469.706 138.792Z" fill="#232D30"/>
<path d="M566.62 298.897C569.29 308.142 576.212 314.254 582.08 312.549C587.948 310.844 590.539 301.969 587.866 292.722C586.849 289.013 584.961 285.603 582.36 282.775L570.553 243.749L552.404 249.695L565.971 287.537C565.279 291.321 565.501 295.217 566.62 298.897Z" fill="#FFB6B6"/>
<path d="M507.207 134.135C507.207 134.135 523.089 122.597 536.025 147.197C548.961 171.798 567.726 217.42 567.726 217.42L584.269 280.682L563.514 290.906L540.81 215.928L504.767 155.336L507.207 134.135Z" fill="#232D30"/>
<path d="M488.321 114.701C502.566 114.701 514.114 103.123 514.114 88.8416C514.114 74.56 502.566 62.9824 488.321 62.9824C474.077 62.9824 462.529 74.56 462.529 88.8416C462.529 103.123 474.077 114.701 488.321 114.701Z" fill="#FFB6B6"/>
<path d="M488.407 78.7529C486.955 78.6093 486.208 80.1485 480.664 82.2959C478.7 83.0567 477.694 83.4386 476.54 83.5129C473.033 83.7388 470.307 81.7967 468.485 80.4988C465.524 78.389 463.617 77.0299 463.244 74.8572C462.758 72.0219 465.959 68.8546 472.382 62.6358C475.528 59.5903 477.444 57.7507 480.522 55.5612C485.684 51.8887 488.266 50.0525 491.884 49.6922C496.676 49.2151 500.32 51.5078 505.577 54.8162C506.997 55.71 509.045 56.1399 511.216 56.3037C518.322 56.8399 524.415 61.5888 526.348 68.4662C526.495 68.9916 526.619 69.4672 526.712 69.8745C530.528 86.5732 529.463 103.941 524.242 120.253C524.101 120.692 523.984 121.101 523.893 121.474C521.468 131.408 488.151 135.28 484.254 126.882C481.801 121.594 493.268 116.303 494.981 100.534C496.173 89.5568 492.028 79.1109 488.407 78.7529Z" fill="#2F2E41"/>
<path d="M387.949 84.5913H108.484V86.0276H387.949V84.5913Z" fill="#C3D4CD"/>
<path d="M387.949 84.5913H108.484V86.0276H387.949V84.5913Z" fill="black" fill-opacity="0.2"/>
<path d="M348.496 63.5926H147.938C144.778 63.5926 142.208 61.0153 142.208 57.8476C142.208 54.6798 144.778 52.1025 147.938 52.1025H348.496C351.655 52.1025 354.226 54.6798 354.226 57.8476C354.226 61.0153 351.655 63.5926 348.496 63.5926Z" fill="#C3D4CD"/>
<path d="M348.496 63.5926H147.938C144.778 63.5926 142.208 61.0153 142.208 57.8476C142.208 54.6798 144.778 52.1025 147.938 52.1025H348.496C351.655 52.1025 354.226 54.6798 354.226 57.8476C354.226 61.0153 351.655 63.5926 348.496 63.5926Z" fill="black" fill-opacity="0.2"/>
<path d="M109.104 96.0213C115.742 96.0213 121.124 90.6259 121.124 83.9704C121.124 77.3148 115.742 71.9194 109.104 71.9194C102.465 71.9194 97.084 77.3148 97.084 83.9704C97.084 90.6259 102.465 96.0213 109.104 96.0213Z" fill="#C3D4CD"/>
<path d="M109.104 96.0213C115.742 96.0213 121.124 90.6259 121.124 83.9704C121.124 77.3148 115.742 71.9194 109.104 71.9194C102.465 71.9194 97.084 77.3148 97.084 83.9704C97.084 90.6259 102.465 96.0213 109.104 96.0213Z" fill="black" fill-opacity="0.2"/>
<path d="M146.088 70.0653C152.727 70.0653 158.108 64.6699 158.108 58.0143C158.108 51.3588 152.727 45.9634 146.088 45.9634C139.45 45.9634 134.068 51.3588 134.068 58.0143C134.068 64.6699 139.45 70.0653 146.088 70.0653Z" fill="#C3D4CD"/>
<path d="M146.088 70.0653C152.727 70.0653 158.108 64.6699 158.108 58.0143C158.108 51.3588 152.727 45.9634 146.088 45.9634C139.45 45.9634 134.068 51.3588 134.068 58.0143C134.068 64.6699 139.45 70.0653 146.088 70.0653Z" fill="black" fill-opacity="0.2"/>
<path d="M293.639 219.006H14.1743V220.442H293.639V219.006Z" fill="#3F3D56"/>
<path d="M254.186 198.007H53.6277C50.4681 198.007 47.8975 195.43 47.8975 192.262C47.8975 189.094 50.4681 186.517 53.6277 186.517H254.186C257.345 186.517 259.916 189.094 259.916 192.262C259.916 195.43 257.345 198.007 254.186 198.007Z" fill="#58A3C1"/>
<path d="M12.0199 230.436C18.6583 230.436 24.0398 225.04 24.0398 218.385C24.0398 211.729 18.6583 206.334 12.0199 206.334C5.38149 206.334 0 211.729 0 218.385C0 225.04 5.38149 230.436 12.0199 230.436Z" fill="#58A3C1"/>
<path d="M49.0043 204.48C55.6427 204.48 61.0242 199.084 61.0242 192.429C61.0242 185.773 55.6427 180.378 49.0043 180.378C42.3659 180.378 36.9844 185.773 36.9844 192.429C36.9844 199.084 42.3659 204.48 49.0043 204.48Z" fill="#58A3C1"/>
<path d="M326.925 367.325H47.4604V368.761H326.925V367.325Z" fill="#C3D4CD"/>
<path d="M326.925 367.325H47.4604V368.761H326.925V367.325Z" fill="black" fill-opacity="0.2"/>
<path d="M287.471 346.326H86.9133C83.7537 346.326 81.1831 343.749 81.1831 340.581C81.1831 337.413 83.7537 334.836 86.9133 334.836H287.471C290.631 334.836 293.201 337.413 293.201 340.581C293.201 343.749 290.631 346.326 287.471 346.326Z" fill="#C3D4CD"/>
<path d="M287.471 346.326H86.9133C83.7537 346.326 81.1831 343.749 81.1831 340.581C81.1831 337.413 83.7537 334.836 86.9133 334.836H287.471C290.631 334.836 293.201 337.413 293.201 340.581C293.201 343.749 290.631 346.326 287.471 346.326Z" fill="black" fill-opacity="0.2"/>
<path d="M81.3651 351.872C88.0035 351.872 93.385 346.477 93.385 339.821C93.385 333.165 88.0035 327.77 81.3651 327.77C74.7267 327.77 69.3452 333.165 69.3452 339.821C69.3452 346.477 74.7267 351.872 81.3651 351.872Z" fill="#C3D4CD"/>
<path d="M81.3651 351.872C88.0035 351.872 93.385 346.477 93.385 339.821C93.385 333.165 88.0035 327.77 81.3651 327.77C74.7267 327.77 69.3452 333.165 69.3452 339.821C69.3452 346.477 74.7267 351.872 81.3651 351.872Z" fill="black" fill-opacity="0.2"/>
<path d="M45.3055 379.682C51.944 379.682 57.3254 374.287 57.3254 367.631C57.3254 360.975 51.944 355.58 45.3055 355.58C38.6671 355.58 33.2856 360.975 33.2856 367.631C33.2856 374.287 38.6671 379.682 45.3055 379.682Z" fill="#C3D4CD"/>
<path d="M45.3055 379.682C51.944 379.682 57.3254 374.287 57.3254 367.631C57.3254 360.975 51.944 355.58 45.3055 355.58C38.6671 355.58 33.2856 360.975 33.2856 367.631C33.2856 374.287 38.6671 379.682 45.3055 379.682Z" fill="black" fill-opacity="0.2"/>
</g>
<defs>
<clipPath id="clip0_203_21613">
<rect width="728" height="536" fill="white"/>
</clipPath>
</defs>
</svg>
