<svg width="728" height="540" viewBox="0 0 728 540" fill="none" xmlns="http://www.w3.org/2000/svg">
<g clip-path="url(#clip0_203_21697)">
<path d="M368.138 513.21C367.421 513.243 366.711 513.055 366.104 512.672C365.497 512.288 365.023 511.728 364.746 511.067C364.469 510.405 364.403 509.675 364.556 508.974C364.708 508.274 365.073 507.637 365.6 507.151C365.688 506.8 365.752 506.549 365.84 506.198C365.154 504.457 363.962 502.961 362.418 501.9C360.874 500.84 359.048 500.264 357.174 500.246C355.3 500.228 353.464 500.77 351.9 501.801C350.336 502.832 349.117 504.306 348.397 506.034C344.247 515.733 338.876 525.773 341.547 536.456C323.902 499.12 329.902 452.678 355.98 420.749C363.188 416.785 369.03 409.742 370.551 401.564C366.984 402.771 362.536 399.874 365.218 396.122C366.381 394.688 367.555 393.266 368.717 391.832C355.166 377.424 339.02 400.068 353.936 419.515C349.057 425.622 344.83 432.223 341.325 439.208C342.135 431.79 341.169 424.287 338.507 417.316C335.809 410.818 330.753 405.346 326.3 399.73C320.886 392.885 309.743 396.043 309.014 404.728C314.011 406.368 314.66 413.573 308.945 414.559C310.442 430.717 321.014 445.565 335.577 452.651C330.199 467.715 328.099 483.75 329.417 499.688C326.847 481.061 306.819 476.541 292.821 469.138C291.93 468.567 290.892 468.268 289.834 468.277C288.776 468.285 287.743 468.601 286.861 469.186C285.979 469.77 285.287 470.598 284.869 471.569C284.45 472.54 284.324 473.611 284.505 474.652C286.437 475.436 288.287 476.41 290.026 477.559C290.841 478.106 291.466 478.892 291.816 479.808C292.167 480.723 292.225 481.725 291.983 482.675C291.741 483.625 291.21 484.477 290.464 485.115C289.717 485.752 288.792 486.143 287.814 486.235C294.87 503.669 313.113 515.376 331.849 515.31C333.649 523.122 336.258 530.725 339.633 537.998H367.441C367.541 537.69 367.631 537.371 367.72 537.063C365.146 537.224 362.562 537.071 360.026 536.605C366.836 528.555 372.102 524.449 368.139 513.211L368.138 513.21Z" fill="#C3D4CD"/>
<path d="M368.138 513.21C367.421 513.243 366.711 513.055 366.104 512.672C365.497 512.288 365.023 511.728 364.746 511.067C364.469 510.405 364.403 509.675 364.556 508.974C364.708 508.274 365.073 507.637 365.6 507.151C365.688 506.8 365.752 506.549 365.84 506.198C365.154 504.457 363.962 502.961 362.418 501.9C360.874 500.84 359.048 500.264 357.174 500.246C355.3 500.228 353.464 500.77 351.9 501.801C350.336 502.832 349.117 504.306 348.397 506.034C344.247 515.733 338.876 525.773 341.547 536.456C323.902 499.12 329.902 452.678 355.98 420.749C363.188 416.785 369.03 409.742 370.551 401.564C366.984 402.771 362.536 399.874 365.218 396.122C366.381 394.688 367.555 393.266 368.717 391.832C355.166 377.424 339.02 400.068 353.936 419.515C349.057 425.622 344.83 432.223 341.325 439.208C342.135 431.79 341.169 424.287 338.507 417.316C335.809 410.818 330.753 405.346 326.3 399.73C320.886 392.885 309.743 396.043 309.014 404.728C314.011 406.368 314.66 413.573 308.945 414.559C310.442 430.717 321.014 445.565 335.577 452.651C330.199 467.715 328.099 483.75 329.417 499.688C326.847 481.061 306.819 476.541 292.821 469.138C291.93 468.567 290.892 468.268 289.834 468.277C288.776 468.285 287.743 468.601 286.861 469.186C285.979 469.77 285.287 470.598 284.869 471.569C284.45 472.54 284.324 473.611 284.505 474.652C286.437 475.436 288.287 476.41 290.026 477.559C290.841 478.106 291.466 478.892 291.816 479.808C292.167 480.723 292.225 481.725 291.983 482.675C291.741 483.625 291.21 484.477 290.464 485.115C289.717 485.752 288.792 486.143 287.814 486.235C294.87 503.669 313.113 515.376 331.849 515.31C333.649 523.122 336.258 530.725 339.633 537.998H367.441C367.541 537.69 367.631 537.371 367.72 537.063C365.146 537.224 362.562 537.071 360.026 536.605C366.836 528.555 372.102 524.449 368.139 513.211L368.138 513.21Z" fill="black" fill-opacity="0.2"/>
<path d="M514.559 15.6283H274.401C272.325 15.6283 270.335 14.805 268.867 13.3396C267.399 11.8741 266.574 9.88658 266.574 7.81414C266.574 5.7417 267.399 3.75414 268.867 2.28871C270.335 0.82327 272.325 0 274.401 0H514.559C516.635 0 518.626 0.82327 520.094 2.28871C521.561 3.75414 522.386 5.7417 522.386 7.81414C522.386 9.88658 521.561 11.8741 520.094 13.3396C518.626 14.805 516.635 15.6283 514.559 15.6283Z" fill="#C3D4CD"/>
<path d="M514.559 15.6283H274.401C272.325 15.6283 270.335 14.805 268.867 13.3396C267.399 11.8741 266.574 9.88658 266.574 7.81414C266.574 5.7417 267.399 3.75414 268.867 2.28871C270.335 0.82327 272.325 0 274.401 0H514.559C516.635 0 518.626 0.82327 520.094 2.28871C521.561 3.75414 522.386 5.7417 522.386 7.81414C522.386 9.88658 521.561 11.8741 520.094 13.3396C518.626 14.805 516.635 15.6283 514.559 15.6283Z" fill="black" fill-opacity="0.2"/>
<path d="M514.559 57.2357H274.401C272.325 57.2357 270.335 56.4124 268.867 54.947C267.399 53.4816 266.574 51.494 266.574 49.4216C266.574 47.3491 267.399 45.3616 268.867 43.8961C270.335 42.4307 272.325 41.6074 274.401 41.6074H514.559C516.635 41.6074 518.626 42.4307 520.094 43.8961C521.561 45.3616 522.386 47.3491 522.386 49.4216C522.386 51.494 521.561 53.4816 520.094 54.947C518.626 56.4124 516.635 57.2357 514.559 57.2357Z" fill="#C3D4CD"/>
<path d="M514.559 57.2357H274.401C272.325 57.2357 270.335 56.4124 268.867 54.947C267.399 53.4816 266.574 51.494 266.574 49.4216C266.574 47.3491 267.399 45.3616 268.867 43.8961C270.335 42.4307 272.325 41.6074 274.401 41.6074H514.559C516.635 41.6074 518.626 42.4307 520.094 43.8961C521.561 45.3616 522.386 47.3491 522.386 49.4216C522.386 51.494 521.561 53.4816 520.094 54.947C518.626 56.4124 516.635 57.2357 514.559 57.2357Z" fill="black" fill-opacity="0.2"/>
<path d="M525.051 308.6L420.362 311.298C418.178 311.352 416.062 310.539 414.479 309.038C412.895 307.536 411.972 305.469 411.914 303.289L410.568 251.268C410.515 249.088 411.329 246.976 412.833 245.395C414.337 243.813 416.408 242.893 418.591 242.834L523.281 240.136C525.465 240.082 527.58 240.895 529.164 242.397C530.748 243.898 531.67 245.966 531.729 248.146L533.074 300.166C533.128 302.346 532.314 304.458 530.81 306.04C529.306 307.621 527.235 308.542 525.051 308.6Z" fill="#E6F6F0"/>
<path d="M525.076 309.568L420.387 312.266C417.946 312.326 415.582 311.417 413.811 309.739C412.041 308.06 411.01 305.75 410.945 303.314L409.599 251.293C409.539 248.856 410.45 246.496 412.131 244.729C413.812 242.961 416.126 241.932 418.566 241.866L523.256 239.168C525.697 239.108 528.061 240.017 529.831 241.695C531.601 243.373 532.632 245.684 532.698 248.12L534.043 300.141C534.103 302.577 533.193 304.938 531.512 306.705C529.831 308.473 527.517 309.502 525.076 309.568ZM418.616 243.801C416.69 243.853 414.862 244.665 413.535 246.06C412.208 247.456 411.49 249.319 411.537 251.243L412.882 303.264C412.934 305.187 413.748 307.011 415.145 308.336C416.543 309.661 418.41 310.379 420.336 310.331L525.026 307.633C526.953 307.581 528.78 306.769 530.107 305.374C531.434 303.978 532.153 302.115 532.105 300.191L530.76 248.17C530.709 246.247 529.895 244.423 528.497 243.098C527.1 241.773 525.233 241.055 523.306 241.103L418.616 243.801Z" fill="#C3D4CD"/>
<path d="M525.076 309.568L420.387 312.266C417.946 312.326 415.582 311.417 413.811 309.739C412.041 308.06 411.01 305.75 410.945 303.314L409.599 251.293C409.539 248.856 410.45 246.496 412.131 244.729C413.812 242.961 416.126 241.932 418.566 241.866L523.256 239.168C525.697 239.108 528.061 240.017 529.831 241.695C531.601 243.373 532.632 245.684 532.698 248.12L534.043 300.141C534.103 302.577 533.193 304.938 531.512 306.705C529.831 308.473 527.517 309.502 525.076 309.568ZM418.616 243.801C416.69 243.853 414.862 244.665 413.535 246.06C412.208 247.456 411.49 249.319 411.537 251.243L412.882 303.264C412.934 305.187 413.748 307.011 415.145 308.336C416.543 309.661 418.41 310.379 420.336 310.331L525.026 307.633C526.953 307.581 528.78 306.769 530.107 305.374C531.434 303.978 532.153 302.115 532.105 300.191L530.76 248.17C530.709 246.247 529.895 244.423 528.497 243.098C527.1 241.773 525.233 241.055 523.306 241.103L418.616 243.801Z" fill="black" fill-opacity="0.2"/>
<path d="M461.042 294.52C460.448 294.533 459.86 294.397 459.333 294.122C458.769 293.837 458.294 293.404 457.958 292.87C457.623 292.335 457.439 291.72 457.428 291.089L456.677 262.057C456.661 261.427 456.815 260.805 457.122 260.255C457.429 259.705 457.878 259.247 458.423 258.93C458.968 258.612 459.588 258.447 460.218 258.451C460.849 258.454 461.467 258.627 462.008 258.951L489.969 272.756C490.477 273.061 490.9 273.488 491.199 273.999C491.498 274.511 491.663 275.089 491.678 275.681C491.693 276.272 491.559 276.858 491.287 277.384C491.015 277.91 490.614 278.359 490.122 278.689L462.912 293.916C462.36 294.291 461.711 294.501 461.042 294.52Z" fill="#58A3C1"/>
<path d="M394.48 186.754C419.638 186.754 440.033 166.393 440.033 141.277C440.033 116.16 419.638 95.7988 394.48 95.7988C369.322 95.7988 348.928 116.16 348.928 141.277C348.928 166.393 369.322 186.754 394.48 186.754Z" fill="#C3D4CD"/>
<path d="M394.48 186.754C419.638 186.754 440.033 166.393 440.033 141.277C440.033 116.16 419.638 95.7988 394.48 95.7988C369.322 95.7988 348.928 116.16 348.928 141.277C348.928 166.393 369.322 186.754 394.48 186.754Z" fill="black" fill-opacity="0.2"/>
<path d="M394.48 165.742C393.966 165.742 393.473 165.538 393.11 165.175C392.746 164.812 392.542 164.32 392.542 163.806V119.022C392.542 118.508 392.746 118.016 393.11 117.653C393.473 117.29 393.966 117.086 394.48 117.086C394.994 117.086 395.488 117.29 395.851 117.653C396.215 118.016 396.419 118.508 396.419 119.022V163.806C396.419 164.32 396.215 164.812 395.851 165.175C395.488 165.538 394.994 165.742 394.48 165.742Z" fill="#E6F6F0"/>
<path d="M416.909 143.349H372.051C371.537 143.349 371.044 143.145 370.681 142.782C370.317 142.419 370.113 141.927 370.113 141.414C370.113 140.9 370.317 140.408 370.681 140.045C371.044 139.682 371.537 139.479 372.051 139.479H416.909C417.423 139.479 417.916 139.682 418.28 140.045C418.643 140.408 418.848 140.9 418.848 141.414C418.848 141.927 418.643 142.419 418.28 142.782C417.916 143.145 417.423 143.349 416.909 143.349Z" fill="#E6F6F0"/>
<path d="M226.808 288.354H149.271V201.269H226.808C218.34 212.636 222.53 250.404 226.808 288.354Z" fill="#FFB6B6"/>
<path d="M227.257 510.57H241.214L247.854 456.824L227.254 456.825L227.257 510.57Z" fill="#FFB6B6"/>
<path d="M245.858 511.824V502.378L242.189 502.602L227.253 503.485L223.796 503.697L221.154 535.334L221.012 537.03H230.922L231.241 535.346L232.68 527.69L236.396 535.346L237.21 537.03H263.484C265.047 537.02 266.544 536.395 267.648 535.29C268.753 534.185 269.376 532.69 269.383 531.129C270.492 525.958 248.642 514.781 245.858 511.824Z" fill="#313F43"/>
<path d="M63.7456 495.404L75.8849 502.279L108.226 458.806L90.3105 448.657L63.7456 495.404Z" fill="#FFB6B6"/>
<path d="M79.3101 505.652L83.9702 497.443L80.6905 495.829L67.2529 489.245L64.1382 487.714L48.8367 510.081L45.2383 515.334L49.3085 517.643L53.8507 520.222L60.009 512.967L59.3248 523.32L80.7848 535.487H80.7966L82.177 536.264C83.5399 537.033 85.1527 537.23 86.6613 536.813C88.1698 536.396 89.4508 535.398 90.223 534.038C93.7388 530.081 80.2657 509.61 79.3101 505.652Z" fill="#313F43"/>
<path d="M146.364 246.747C127.661 259.12 120.777 377.994 125.636 376.053L81.5537 458.073L144.299 486.153L185.555 343.138L192.431 395.767L183.263 479.288L223.82 489.08L251.873 487.08C244.584 387.524 238.014 282.524 222.931 241.909L146.364 246.747Z" fill="#232D30"/>
<path d="M204.468 105.63C204.468 105.63 183.705 102.949 177.378 105.475C175.128 106.374 172.877 114.628 168.656 117.086C161.013 121.538 154.776 120.788 154.776 120.788C157.762 158.736 157.599 188.175 139.739 243.146C139.722 244.537 140.063 245.909 140.73 247.131C141.397 248.352 142.366 249.383 143.546 250.123C144.726 250.863 146.076 251.289 147.468 251.359C148.86 251.429 150.246 251.141 151.494 250.523L224.869 244.811L233.568 199.102L244.955 175.102L230.202 144.787L228.937 127.103L210.331 118.054L204.468 105.63Z" fill="#58A3C1"/>
<path d="M213.635 97.2409L213.657 97.2429C214.851 97.3458 216.037 96.9711 216.954 96.2011C217.871 95.4312 218.444 94.3291 218.547 93.1373L220.732 68.0614C221.128 63.5691 220.615 59.0433 219.224 54.7529C216.497 46.3794 210.639 39.3794 202.87 35.2117C198.859 33.0655 194.454 31.7524 189.921 31.3515C171.374 29.7113 164.627 33.61 153.365 61.9076C142.103 90.2053 151.176 87.0218 151.176 87.0218C151.123 87.6262 151.192 88.235 151.38 88.8121C151.747 89.938 152.537 90.8785 153.583 91.4371C154.12 91.7231 154.708 91.8984 155.314 91.9527C177.263 97.3682 199.412 103.075 213.639 97.2412L213.635 97.2409Z" fill="#2F2E41"/>
<path d="M172.57 55.2132C169.846 59.2944 168.395 64.0899 168.4 68.9939C168.405 73.898 169.865 78.6907 172.596 82.7667C175.328 86.8426 179.208 90.0191 183.746 91.8949C188.285 93.7706 193.279 94.2616 198.096 93.3057C201.286 92.6833 204.32 91.4352 207.023 89.6338C209.725 87.8323 212.043 85.5134 213.842 82.8112C216.56 78.7314 218.007 73.9395 218 69.0398C217.994 64.1401 216.535 59.3519 213.807 55.279C211.079 51.206 207.204 48.0307 202.67 46.1533C198.137 44.276 193.149 43.7806 188.334 44.7297C185.142 45.3486 182.105 46.594 179.399 48.3938C176.693 50.1935 174.372 52.5109 172.57 55.2132Z" fill="#FFB6B6"/>
<path d="M228.521 70.7942C228.833 67.2414 228.428 63.662 227.327 60.2688C227.022 51.9525 224.555 44.4344 214.395 44.8179C211.243 43.1328 207.783 42.0978 204.221 41.7748L199.196 41.313C199.14 41.3078 199.084 41.3027 199.027 41.2978C191.996 40.6915 185.012 42.8984 179.611 47.433C174.211 51.9675 170.835 58.4584 170.228 65.4775L170.184 65.9798L180.815 66.9464L185.323 57.1471L185.165 67.344L190.656 67.8453L192.929 62.9013L192.851 68.0425C201.045 75.1523 213.402 75.446 228.472 71.2971L228.521 70.7942Z" fill="#2F2E41"/>
<path d="M194.694 94.7997C194.79 95.6249 194.652 96.4603 194.296 97.211C194.117 97.5954 193.884 97.9529 193.605 98.273C193.367 98.5456 193.097 98.789 192.801 98.9983C191.925 99.616 190.857 99.9017 189.789 99.8043C189.723 99.7979 189.656 99.7902 189.59 99.7813C189.524 99.7724 189.458 99.762 189.391 99.75C189.325 99.7386 189.259 99.7253 189.193 99.7102C189.127 99.6951 189.061 99.6787 188.995 99.6611L185.28 98.6483L181.047 87.1078L180.162 97.2649L163.27 92.6899L167.026 49.5874L195.784 52.2241L195 52.9871C192.399 55.5491 190.555 58.7782 189.673 62.3189C188.798 65.9067 188.545 69.6177 188.926 73.2908C189.283 77.005 189.997 80.6764 191.057 84.2544C191.98 87.4229 193.085 90.5355 194.367 93.577C194.533 93.9673 194.643 94.3789 194.694 94.7997Z" fill="#2F2E41"/>
<path d="M145.643 389.305L124.52 262.487C124.095 259.919 124.708 257.289 126.224 255.172C127.739 253.055 130.034 251.625 132.605 251.195L228.538 235.269C231.11 234.845 233.745 235.457 235.865 236.97C237.985 238.483 239.418 240.774 239.848 243.341L260.971 370.159C261.396 372.726 260.783 375.357 259.267 377.474C257.752 379.591 255.457 381.021 252.886 381.451L156.953 397.377C154.381 397.801 151.746 397.189 149.626 395.676C147.506 394.163 146.073 391.872 145.643 389.305Z" fill="#C3D4CD"/>
<path d="M145.643 389.305L124.52 262.487C124.095 259.919 124.708 257.289 126.224 255.172C127.739 253.055 130.034 251.625 132.605 251.195L228.538 235.269C231.11 234.845 233.745 235.457 235.865 236.97C237.985 238.483 239.418 240.774 239.848 243.341L260.971 370.159C261.396 372.726 260.783 375.357 259.267 377.474C257.752 379.591 255.457 381.021 252.886 381.451L156.953 397.377C154.381 397.801 151.746 397.189 149.626 395.676C147.506 394.163 146.073 391.872 145.643 389.305Z" fill="black" fill-opacity="0.2"/>
<path d="M146.621 349.779L133.042 268.249C132.644 265.845 133.218 263.381 134.637 261.398C136.057 259.416 138.206 258.077 140.613 257.674L223.06 243.987C225.469 243.59 227.936 244.163 229.922 245.58C231.908 246.997 233.25 249.143 233.653 251.546L252.449 364.397C252.847 366.802 252.273 369.265 250.854 371.248C249.434 373.23 247.285 374.57 244.877 374.972L193.803 383.451C183.076 385.22 172.084 382.668 163.238 376.355C154.393 370.043 148.417 360.485 146.621 349.779Z" fill="#E6F6F0"/>
<path d="M150.18 288.781C149.791 286.432 150.352 284.024 151.739 282.087C153.126 280.15 155.227 278.841 157.579 278.448L214.772 268.953C217.125 268.565 219.536 269.125 221.475 270.51C223.414 271.895 224.723 273.993 225.114 276.341C225.505 278.689 224.947 281.097 223.561 283.034C222.175 284.972 220.076 286.28 217.724 286.673L160.531 296.168C158.177 296.556 155.766 295.996 153.825 294.612C151.885 293.227 150.574 291.13 150.18 288.781Z" fill="#58A3C1"/>
<path d="M154.771 316.346C154.383 313.997 154.943 311.589 156.33 309.652C157.718 307.715 159.818 306.406 162.17 306.013L219.364 296.518C221.716 296.129 224.127 296.689 226.067 298.075C228.006 299.46 229.315 301.558 229.706 303.906C230.097 306.255 229.539 308.662 228.153 310.599C226.767 312.537 224.667 313.846 222.315 314.238L165.122 323.733C162.769 324.121 160.357 323.561 158.417 322.177C156.476 320.792 155.165 318.695 154.771 316.346Z" fill="#58A3C1"/>
<path d="M159.363 343.912C158.974 341.562 159.535 339.155 160.922 337.217C162.309 335.28 164.409 333.971 166.762 333.578L223.955 324.083C226.308 323.695 228.718 324.255 230.657 325.64C232.597 327.026 233.906 329.123 234.297 331.471C234.688 333.82 234.129 336.227 232.743 338.165C231.358 340.102 229.258 341.411 226.906 341.804L169.713 351.298C167.36 351.687 164.948 351.127 163.008 349.742C161.067 348.357 159.756 346.26 159.363 343.912Z" fill="#58A3C1"/>
<path d="M134.234 275.723C135.256 274.654 136.034 273.376 136.514 271.978C136.993 270.579 137.162 269.093 137.01 267.622C136.857 266.152 136.387 264.732 135.631 263.461C134.874 262.19 133.851 261.098 132.63 260.261L142.698 210.389L129.565 204.217L118.042 263.538C116.783 265.694 116.36 268.236 116.853 270.682C117.346 273.128 118.721 275.309 120.716 276.811C122.712 278.313 125.191 279.032 127.682 278.832C130.173 278.631 132.504 277.525 134.234 275.723Z" fill="#FFB6B6"/>
<path d="M155.087 120.957C155.087 120.957 132.002 129.63 130.737 142.261C129.472 154.892 126.564 166.151 127.83 171.204C129.095 176.256 123.48 181.998 126.011 185.787C128.541 189.577 122.473 190.823 125.003 197.138C127.534 203.454 128.799 204.717 127.534 205.98C126.268 207.244 122.134 233.2 122.134 233.2L140.105 237.182L163.552 183.945L155.087 120.957Z" fill="#58A3C1"/>
<path d="M238.938 275.723C237.916 274.654 237.138 273.376 236.658 271.978C236.179 270.579 236.01 269.093 236.162 267.622C236.315 266.152 236.785 264.732 237.541 263.461C238.298 262.19 239.321 261.098 240.542 260.261L230.474 210.389L243.607 204.217L255.13 263.538C256.389 265.694 256.812 268.236 256.319 270.682C255.826 273.128 254.451 275.309 252.456 276.811C250.46 278.313 247.981 279.032 245.49 278.832C242.999 278.631 240.668 277.525 238.938 275.723Z" fill="#FFB6B6"/>
<path d="M223.876 125.84C226.279 125.974 228.602 126.748 230.604 128.08C232.606 129.413 234.215 131.256 235.263 133.419C239.059 140.998 253.272 188.771 252.007 192.56C250.742 196.35 256.476 208.588 253.945 211.114C251.415 213.64 249.1 228.362 249.1 228.362L230.66 232.587L224.711 176.366L223.876 125.84Z" fill="#58A3C1"/>
<path d="M659.514 298.841C659.148 297.607 659.058 296.307 659.249 295.034C659.44 293.761 659.909 292.546 660.622 291.473C661.335 290.401 662.275 289.498 663.375 288.827C664.475 288.156 665.71 287.734 666.991 287.592L673.913 257.077L685.192 268.804L676.89 295.984C676.988 298.149 676.287 300.274 674.92 301.957C673.553 303.641 671.615 304.765 669.473 305.117C667.331 305.469 665.135 305.025 663.299 303.868C661.464 302.711 660.117 300.923 659.514 298.841Z" fill="#A0616A"/>
<path d="M676.147 110.847L676.702 113.469L705.595 201.717L686.16 280.358L670.252 272.932L674.002 203.209C645.452 165.151 637.054 151.376 639.544 111.766L676.147 110.847Z" fill="#C3D4CD"/>
<path d="M676.147 110.847L676.702 113.469L705.595 201.717L686.16 280.358L670.252 272.932L674.002 203.209C645.452 165.151 637.054 151.376 639.544 111.766L676.147 110.847Z" fill="black" fill-opacity="0.2"/>
<path d="M651.523 523.998L637.31 523.997L630.548 469.261L651.526 469.263L651.523 523.998Z" fill="#A0616A"/>
<path d="M652.024 538.801L608.315 538.8V538.248C608.316 533.743 610.108 529.423 613.299 526.238C616.489 523.053 620.816 521.264 625.328 521.263H625.329L633.313 515.216L648.21 521.264L652.025 521.264L652.024 538.801Z" fill="#313F43"/>
<path d="M573.411 523.998L559.198 523.997L552.436 469.261L573.414 469.263L573.411 523.998Z" fill="#A0616A"/>
<path d="M573.912 538.801L530.203 538.8V538.248C530.203 533.743 531.996 529.423 535.186 526.238C538.377 523.053 542.704 521.264 547.216 521.263H547.217L555.201 515.216L570.097 521.264L573.913 521.264L573.912 538.801Z" fill="#313F43"/>
<path d="M668.809 272.929C668.809 272.929 674.416 286.223 668.809 307.914C663.203 329.604 661.801 384.18 661.801 384.18L652.813 506.735H629.04L628.16 418.466L616.246 323.307L592.417 413.568C592.417 413.568 583.306 480.738 579.802 483.537C576.298 486.336 574.701 505.887 574.701 505.887C567.499 506.965 556.542 504.153 550.079 500.801C552.743 499.652 564.034 276.238 564.383 272.929C565.751 259.986 668.809 272.929 668.809 272.929Z" fill="#232D30"/>
<path d="M474.044 249.428C475.329 249.534 476.621 249.358 477.831 248.912C479.04 248.466 480.137 247.76 481.043 246.845C481.95 245.93 482.644 244.827 483.078 243.615C483.512 242.403 483.674 241.111 483.553 239.829L512.068 226.849L498.27 218.212L473.307 231.863C471.164 232.208 469.223 233.326 467.85 235.005C466.478 236.684 465.77 238.807 465.861 240.972C465.952 243.137 466.835 245.194 468.343 246.752C469.851 248.311 471.88 249.263 474.044 249.428Z" fill="#A0616A"/>
<path d="M585.058 141.167L594.74 144.902L567.609 198.77L496.553 237.867L491.226 221.161L545.077 176.609C563.914 121.9 575.232 97.4551 588.825 97.79L585.058 141.167Z" fill="#C3D4CD"/>
<path d="M585.058 141.167L594.74 144.902L567.609 198.77L496.553 237.867L491.226 221.161L545.077 176.609C563.914 121.9 575.232 97.4551 588.825 97.79L585.058 141.167Z" fill="black" fill-opacity="0.2"/>
<path d="M576.415 110.254C577.649 105.865 580.351 102.032 584.073 99.3918C587.795 96.752 592.311 95.4656 596.867 95.7472C596.94 95.7522 597.012 95.7574 597.084 95.7629C603.138 96.2222 610.887 81.5565 618.912 82.1805C624.559 82.6196 630.342 83.0745 635.769 83.5102C640.604 83.8986 645.156 99.5293 649.075 99.8624C656.478 100.491 658.226 100.978 658.755 101.154C660.858 101.853 668.945 102.406 674.04 108.339C676.32 110.996 685.388 136.138 679.781 162.727C674.174 189.315 667.76 223.757 667.76 223.757C667.76 223.757 673.365 240.393 670.562 247.39C667.758 254.387 673.365 259.285 673.365 262.084C673.365 264.882 671.963 278.876 671.963 278.876C671.963 278.876 572.125 289.455 563.332 278.876C563.044 278.529 574.995 220.535 570.047 173.913C567.331 148.32 572.393 124.345 576.415 110.254Z" fill="#C3D4CD"/>
<path d="M576.415 110.254C577.649 105.865 580.351 102.032 584.073 99.3918C587.795 96.752 592.311 95.4656 596.867 95.7472C596.94 95.7522 597.012 95.7574 597.084 95.7629C603.138 96.2222 610.887 81.5565 618.912 82.1805C624.559 82.6196 630.342 83.0745 635.769 83.5102C640.604 83.8986 645.156 99.5293 649.075 99.8624C656.478 100.491 658.226 100.978 658.755 101.154C660.858 101.853 668.945 102.406 674.04 108.339C676.32 110.996 685.388 136.138 679.781 162.727C674.174 189.315 667.76 223.757 667.76 223.757C667.76 223.757 673.365 240.393 670.562 247.39C667.758 254.387 673.365 259.285 673.365 262.084C673.365 264.882 671.963 278.876 671.963 278.876C671.963 278.876 572.125 289.455 563.332 278.876C563.044 278.529 574.995 220.535 570.047 173.913C567.331 148.32 572.393 124.345 576.415 110.254Z" fill="black" fill-opacity="0.2"/>
<path d="M626.91 79.135C642.839 79.135 655.753 66.2427 655.753 50.3392C655.753 34.4358 642.839 21.5435 626.91 21.5435C610.98 21.5435 598.066 34.4358 598.066 50.3392C598.066 66.2427 610.98 79.135 626.91 79.135Z" fill="#A0616A"/>
<path d="M607.131 17.0922C609.198 17.0309 608.489 13.1408 610.154 11.8999C610.162 11.9375 610.171 11.9751 610.18 12.0126C610.398 12.8529 610.881 13.601 611.557 14.1467C612.233 14.6925 613.067 15.007 613.936 15.044C614.805 15.081 615.662 14.8385 616.383 14.3523C617.103 13.866 617.648 13.1617 617.937 12.343C618.213 11.396 618.713 10.529 619.395 9.81506C620.077 9.10109 620.92 8.561 621.854 8.24023C621.958 11.8459 624.69 14.9752 627.949 16.5326C631.208 18.0899 634.924 18.349 638.537 18.4024C642.15 18.4557 645.814 18.3349 649.318 19.2175C652.821 20.1001 656.228 22.1752 657.725 25.4583C659.222 28.7415 658.154 33.2616 654.881 34.7896C657.417 34.803 659.568 36.8919 660.445 39.2671C661.321 41.6424 661.188 44.2558 660.994 46.7798C660.282 56.0913 658.545 66.1162 651.753 72.5378C646.577 77.432 639.168 79.4036 632.039 79.3752C624.91 79.3466 626.164 78.6925 619.271 76.8759C619.271 76.8759 612.718 58.12 614.368 56.2749C616.018 54.4299 617.389 52.0689 617.09 49.6134C616.791 47.1578 614.148 44.9582 611.854 45.8929C612.24 44.9085 612.531 44.721 612.713 44.771C612.597 44.4912 612.495 44.2056 612.409 43.9153C611.978 42.4359 611.2 41.0799 610.141 39.9588C609.082 38.8377 607.772 37.9835 606.318 37.4665C604.849 36.9906 603.27 36.9749 601.792 37.4214C600.314 37.8679 599.009 38.7553 598.051 39.9644C590.503 32.8974 595.186 17.4464 607.131 17.0922Z" fill="#2F2E41"/>
<path d="M726.846 539.703L1.1541 540C0.848612 539.999 0.555948 539.877 0.34025 539.661C0.124551 539.445 0.00341797 539.153 0.00341797 538.848C0.00341797 538.543 0.124551 538.25 0.34025 538.034C0.555948 537.818 0.848612 537.697 1.1541 537.696L726.846 537.398C727.152 537.398 727.446 537.52 727.662 537.736C727.879 537.952 728 538.245 728 538.551C728 538.856 727.879 539.149 727.662 539.365C727.446 539.581 727.152 539.703 726.846 539.703Z" fill="#CACACA"/>
</g>
<defs>
<clipPath id="clip0_203_21697">
<rect width="728" height="540" fill="white"/>
</clipPath>
</defs>
</svg>
