<svg width="670" height="652" viewBox="0 0 670 652" fill="none" xmlns="http://www.w3.org/2000/svg">
<g clip-path="url(#clip0_279_9223)">
<path d="M355.438 494.873C345.474 496.402 338.186 502.788 339.159 509.136C340.132 515.485 348.997 519.39 358.964 517.859C362.953 517.302 366.752 515.797 370.041 513.469L412.176 506.457L409.364 489.782L367.324 495.738C363.488 494.503 359.412 494.207 355.438 494.873Z" fill="#FFB6B6"/>
<path d="M537.006 442.896L520.668 477.605L438.536 505.287L370.382 508.927L368.675 492.538L442.538 477.076L518.33 441.218L537.006 442.896Z" fill="#E6E6E6"/>
<path d="M350.661 370.283L348.422 370.333L352.703 565.131L354.943 565.081L350.661 370.283Z" fill="#3F3D56"/>
<path d="M350.71 456.534C350.507 455.843 345.863 439.414 355.918 423.266L357.819 424.453C348.311 439.722 352.813 455.743 352.859 455.904L350.71 456.534Z" fill="#3F3D56"/>
<path d="M356.704 424.512C356.704 424.512 353.647 403.596 381.807 397.855C387.673 396.659 393.188 395.842 398.244 395.297C404.211 394.654 406.539 402.833 401.148 405.474C393.341 409.3 385.997 414.12 382.169 419.828C371.611 435.571 356.704 424.512 356.704 424.512Z" fill="#58A3C1"/>
<path d="M353.606 517.022L351.457 516.392C351.503 516.231 356.005 500.21 346.497 484.94L348.398 483.753C358.452 499.902 353.809 516.331 353.606 517.022Z" fill="#3F3D56"/>
<path d="M347.612 485C347.612 485 350.668 464.083 322.509 458.342C316.643 457.146 311.128 456.329 306.072 455.784C300.105 455.142 297.777 463.32 303.168 465.962C310.975 469.787 318.319 474.607 322.147 480.315C332.705 496.058 347.612 485 347.612 485Z" fill="#58A3C1"/>
<path d="M386.804 343.236C392.472 341.74 397.772 339.133 397.597 336.554C397.388 333.49 389.519 331.437 382.73 331.125C387.85 327.114 392.555 321.57 391.117 319.062C389.794 316.757 383.64 317.65 377.963 319.68C381.323 314.871 383.685 309.453 381.886 307.598C379.645 305.288 371.692 309.275 366.265 313.682C367.321 306.816 366.787 298.149 363.711 297.365C361.138 296.709 357.491 301.751 354.99 307.243C353.885 301.48 351.648 296.008 349.066 296.008C345.388 296.008 342.406 307.111 342.406 314.345C342.406 314.753 342.417 315.138 342.435 315.506C342.066 315.078 341.643 314.63 341.16 314.161C335.977 309.121 325.944 303.527 323.381 306.169C321.583 308.024 323.945 313.443 327.304 318.252C321.627 316.221 315.474 315.328 314.151 317.634C312.374 320.731 319.971 328.463 326.146 332.213C325.775 332.168 325.385 332.13 324.97 332.102C317.761 331.61 306.494 333.832 306.244 337.506C306.068 340.085 311.368 342.693 317.036 344.189C311.393 346.313 306.121 349.612 306.599 352.227C307.18 355.401 316.039 356.512 323.004 355.862C317.801 360.86 312.158 369.814 314.513 372.439C316.238 374.362 321.799 372.371 326.82 369.343C324.41 374.875 323.102 380.961 325.309 382.439C328.226 384.392 336.225 377.593 340.443 371.743C340.013 378.9 341.724 388.733 345.118 389.121C347.683 389.414 350.526 384.232 352.277 378.631C354.139 384.372 357.191 389.795 359.822 389.436C363.243 388.968 364.735 378.89 364.097 371.728C368.447 377.337 375.769 383.336 378.531 381.486C380.739 380.008 379.43 373.923 377.02 368.39C382.041 371.419 387.602 373.409 389.327 371.486C391.682 368.862 386.04 359.908 380.836 354.909C387.801 355.56 396.66 354.449 397.241 351.275C397.719 348.66 392.447 345.36 386.804 343.236ZM356.285 363.481C354.828 363.68 353.496 363.964 352.482 364.69C351.406 363.62 349.834 363.294 348.086 363.094C346.129 362.871 344.351 362.849 342.995 363.98C342.498 362.599 341.278 361.618 339.857 360.666C338.634 359.847 337.449 359.175 336.21 359.046C336.113 357.531 335.153 356.243 333.977 354.933C333.227 354.097 332.477 353.35 331.645 352.851C332.846 351.387 332.707 349.537 332.336 347.507C332.071 346.059 331.726 344.739 330.956 343.759C331.974 342.634 332.228 341.047 332.348 339.29C332.478 337.371 332.424 335.631 331.318 334.336C334.177 334.7 335.556 332.917 336.838 330.682C337.571 329.406 338.16 328.176 338.204 326.93C339.708 326.73 340.926 325.683 342.151 324.419C343.198 323.34 344.089 322.271 344.423 321.041C345.623 322.05 347.26 322.203 349.066 322.203C350.825 322.203 352.424 322.058 353.614 321.118C354.539 321.954 355.83 322.387 357.255 322.751C358.615 323.098 359.899 323.329 361.067 323.096C361.493 324.071 362.251 324.956 363.116 325.848C364.342 327.111 365.56 328.159 367.063 328.358C367.108 329.605 367.697 330.835 368.429 332.111C369.291 333.614 370.197 334.913 371.567 335.493C371.407 336.366 371.424 337.326 371.493 338.337C371.612 340.094 371.866 341.681 372.884 342.806C372.114 343.787 371.769 345.106 371.504 346.554C371.133 348.584 370.994 350.434 372.195 351.898C371.363 352.398 370.613 353.145 369.863 353.98C368.688 355.29 367.727 356.578 367.63 358.093C366.391 358.223 365.206 358.895 363.984 359.713C362.314 360.831 360.924 361.99 360.657 363.789C359.404 363.181 357.905 363.259 356.285 363.481Z" fill="#58A3C1"/>
<path d="M352.396 366.974C365.533 366.974 376.182 356.312 376.182 343.16C376.182 330.008 365.533 319.346 352.396 319.346C339.259 319.346 328.61 330.008 328.61 343.16C328.61 356.312 339.259 366.974 352.396 366.974Z" fill="#3F3D56"/>
<path d="M65.5261 631.929C65.5261 632.669 66.1197 633.263 66.8588 633.263H651.786C652.525 633.263 653.119 632.669 653.119 631.929C653.119 631.189 652.525 630.595 651.786 630.595H66.8588C66.1197 630.595 65.5261 631.189 65.5261 631.929Z" fill="#3F3D56"/>
<path d="M385.523 574.688L370.855 611.833L351.872 598.876L363.089 560.003L385.523 574.688Z" fill="#FFB6B6"/>
<path d="M324.262 560.867L285.435 598.012L300.966 614.425L340.656 583.327L324.262 560.867Z" fill="#FFB6B6"/>
<path d="M544.283 439.93L543.851 436.906L533.929 417.47L501.141 426.108L507.181 452.887L544.283 439.93Z" fill="#FFB6B6"/>
<path d="M530.477 569.505L531.486 582.48C531.486 582.48 535.654 636.884 502.004 641.204C468.354 645.523 453.686 649.842 433.841 616.152L402.779 560.867L384.636 582.48L360.501 563.458C360.501 563.458 377.757 496.079 391.562 493.487C393.288 493.163 395.014 493.001 396.712 492.966C408.141 492.727 418.915 498.324 425.753 507.496L464.903 560.003L479.139 553.524L530.477 569.505Z" fill="#2F2E41"/>
<path d="M344.107 610.106L351.872 595.42L374.306 610.97C374.306 610.97 379.483 629.974 371.717 632.566C363.952 635.157 342.381 631.702 342.381 631.702C342.381 631.702 302.691 640.34 301.829 632.566C300.966 624.791 319.948 623.063 319.948 623.063L344.107 610.106Z" fill="#2F2E41"/>
<path d="M428.664 599.74L368.698 561.911L338.067 589.374L317.359 565.186C317.359 565.186 355.324 509.037 366.54 506.445C377.757 503.854 395.877 502.126 395.877 502.126L451.097 553.092L428.664 599.74Z" fill="#2F2E41"/>
<path d="M284.572 594.557L304.417 616.153L301.8 618.394C301.8 618.394 296.652 640.844 284.572 633.249C272.492 625.655 271.63 623.927 271.63 623.927C271.63 623.927 237.117 631.702 233.665 617.88C230.214 604.059 239.705 606.65 239.705 606.65L248.323 611.833L284.572 594.557Z" fill="#2F2E41"/>
<path d="M511.495 435.61C526.744 435.61 539.106 423.234 539.106 407.967C539.106 392.7 526.744 380.324 511.495 380.324C496.246 380.324 483.885 392.7 483.885 407.967C483.885 423.234 496.246 435.61 511.495 435.61Z" fill="#FFB6B6"/>
<path d="M505.024 447.272L544.714 435.178C544.714 435.178 560.245 471.459 557.656 487.872C555.068 504.285 531.486 582.48 531.486 582.48L479.139 553.524C479.139 553.524 478.277 536.247 475.688 528.473C473.1 520.698 464.903 496.943 483.022 477.074C501.141 457.206 505.024 447.272 505.024 447.272Z" fill="#E6E6E6"/>
<path d="M117.417 174.889L115.179 174.938L125.258 633.527L127.497 633.477L117.417 174.889Z" fill="#3F3D56"/>
<path d="M120.503 377.478C120.388 377.086 109.284 337.832 132.597 300.391L134.498 301.577C111.709 338.176 122.54 376.464 122.652 376.847L120.503 377.478Z" fill="#3F3D56"/>
<path d="M133.16 302.521C133.16 302.521 125.964 253.28 192.255 239.765C206.066 236.95 219.049 235.026 230.951 233.744C245 232.23 250.48 251.484 237.788 257.703C219.409 266.709 202.119 278.056 193.108 291.494C168.254 328.554 133.16 302.521 133.16 302.521Z" fill="#58A3C1"/>
<path d="M124.413 519.875L122.263 519.244C122.375 518.862 133.184 480.539 110.417 443.975L112.318 442.788C135.632 480.23 124.527 519.483 124.413 519.875Z" fill="#3F3D56"/>
<path d="M111.755 444.919C111.755 444.919 118.951 395.677 52.6599 382.163C38.8493 379.347 25.8658 377.423 13.9642 376.141C-0.0843746 374.628 -5.56435 393.881 7.12678 400.1C25.5064 409.106 42.7957 420.454 51.8073 433.891C76.6611 470.952 111.755 444.919 111.755 444.919Z" fill="#58A3C1"/>
<path d="M204.02 111.184C217.364 107.661 229.842 101.524 229.428 95.4521C228.936 88.2393 210.411 83.4065 194.429 82.6711C206.484 73.2293 217.56 60.1773 214.172 54.2744C211.058 48.8475 196.572 50.9497 183.207 55.7293C191.117 44.4082 196.677 31.6512 192.442 27.2854C187.167 21.8471 168.445 31.2336 155.667 41.6092C158.155 25.4451 156.897 5.04183 149.656 3.19587C143.598 1.65156 135.012 13.5203 129.125 26.4494C126.524 12.8814 121.257 0 115.178 0C106.519 0 99.4991 26.1385 99.4991 43.1678C99.4991 44.1304 99.5246 45.0366 99.5685 45.9024C98.6993 44.8936 97.7033 43.8397 96.5674 42.7352C84.3652 30.8711 60.7455 17.7025 54.7127 23.9217C50.4779 28.2874 56.0385 41.0444 63.9479 52.3656C50.5827 47.5859 36.0966 45.4838 32.9826 50.9107C28.7985 58.2026 46.6836 76.4055 61.2213 85.233C60.3474 85.1276 59.4292 85.0389 58.4521 84.9722C41.4823 83.8129 14.9571 89.0452 14.3676 97.6945C13.9538 103.766 26.4316 109.904 39.7751 113.426C26.4904 118.426 14.0787 126.194 15.2053 132.35C16.5725 139.822 37.4271 142.437 53.8244 140.906C41.5744 152.673 28.2914 173.753 33.8347 179.931C37.897 184.458 50.988 179.772 62.8081 172.643C57.1352 185.667 54.0543 199.993 59.2503 203.473C66.117 208.072 84.9493 192.066 94.8785 178.294C93.8668 195.143 97.8936 218.29 105.883 219.203C111.923 219.894 118.615 207.694 122.738 194.509C127.121 208.023 134.307 220.791 140.501 219.944C148.555 218.844 152.066 195.118 150.564 178.257C160.806 191.462 178.043 205.586 184.545 201.231C189.741 197.751 186.66 183.425 180.987 170.4C192.807 177.53 205.898 182.215 209.961 177.688C215.504 171.51 202.221 150.431 189.971 138.664C206.368 140.195 227.223 137.579 228.59 130.108C229.717 123.951 217.305 116.183 204.02 111.184ZM132.173 158.842C128.743 159.311 125.606 159.98 123.221 161.689C120.688 159.171 116.987 158.404 112.872 157.933C108.265 157.406 104.078 157.356 100.885 160.017C99.7169 156.766 96.8442 154.457 93.4979 152.216C90.6206 150.289 87.8302 148.707 84.9132 148.402C84.6853 144.835 82.4239 141.803 79.6562 138.719C77.8915 136.752 76.1259 134.994 74.1667 133.817C76.9934 130.372 76.6675 126.017 75.7929 121.237C75.1691 117.828 74.3585 114.722 72.5448 112.414C74.9421 109.765 75.5388 106.029 75.8207 101.893C76.1285 97.3757 76.0006 93.2804 73.3965 90.2309C80.1263 91.088 83.3739 86.8905 86.3926 81.6298C88.117 78.6246 89.5033 75.7297 89.6087 72.7953C93.148 72.3248 96.015 69.8596 98.9002 66.8852C101.365 64.3442 103.462 61.8283 104.249 58.9325C107.073 61.3087 110.927 61.6684 115.178 61.6684C119.32 61.6684 123.083 61.3267 125.886 59.1125C128.062 61.0811 131.102 62.1022 134.457 62.9574C137.659 63.7738 140.682 64.3197 143.431 63.7703C144.434 66.0649 146.218 68.1486 148.255 70.2489C151.14 73.2234 154.007 75.6886 157.546 76.159C157.652 79.0934 159.038 81.9884 160.762 84.9935C162.792 88.5309 164.924 91.5895 168.149 92.9542C167.772 95.009 167.812 97.2707 167.975 99.6501C168.257 103.787 168.853 107.523 171.25 110.172C169.437 112.479 168.626 115.586 168.002 118.995C167.128 123.774 166.802 128.129 169.629 131.575C167.669 132.751 165.904 134.509 164.139 136.476C161.371 139.561 159.11 142.592 158.882 146.159C155.965 146.464 153.175 148.046 150.297 149.973C146.367 152.605 143.094 155.333 142.465 159.569C139.516 158.136 135.986 158.321 132.173 158.842Z" fill="#58A3C1"/>
<path d="M123.018 167.065C153.944 167.065 179.014 141.965 179.014 111.003C179.014 80.0408 153.944 54.9409 123.018 54.9409C92.0916 54.9409 67.0212 80.0408 67.0212 111.003C67.0212 141.965 92.0916 167.065 123.018 167.065Z" fill="#3F3D56"/>
<path d="M640.388 522.782L638.149 522.831L640.558 632.405L642.797 632.356L640.388 522.782Z" fill="#3F3D56"/>
<path d="M639.455 571.447C639.339 571.049 636.669 561.603 642.44 552.335L644.341 553.522C639.116 561.912 641.58 570.73 641.605 570.817L639.455 571.447Z" fill="#3F3D56"/>
<path d="M643.298 553.297C643.298 553.297 641.578 541.531 657.418 538.302C660.717 537.629 663.82 537.169 666.663 536.863C670.02 536.501 671.33 541.102 668.297 542.588C663.906 544.74 659.774 547.451 657.621 550.662C651.683 559.517 643.298 553.297 643.298 553.297Z" fill="#58A3C1"/>
<path d="M642.025 605.471L639.876 604.841C639.901 604.754 642.364 595.937 637.14 587.547L639.041 586.36C644.811 595.628 642.142 605.073 642.025 605.471Z" fill="#3F3D56"/>
<path d="M638.183 587.321C638.183 587.321 639.902 575.555 624.063 572.326C620.763 571.653 617.661 571.193 614.817 570.887C611.46 570.525 610.151 575.126 613.183 576.612C617.575 578.764 621.706 581.475 623.859 584.686C629.798 593.541 638.183 587.321 638.183 587.321Z" fill="#58A3C1"/>
<path d="M660.229 507.579C663.417 506.737 666.398 505.271 666.299 503.82C666.182 502.096 661.756 500.942 657.937 500.766C660.817 498.51 663.464 495.391 662.654 493.981C661.91 492.684 658.449 493.186 655.256 494.329C657.145 491.623 658.474 488.575 657.462 487.532C656.202 486.233 651.728 488.476 648.675 490.955C649.27 487.093 648.969 482.217 647.239 481.776C645.791 481.407 643.74 484.243 642.333 487.332C641.712 484.091 640.453 481.013 639.001 481.013C636.932 481.013 635.255 487.258 635.255 491.327C635.255 491.557 635.261 491.774 635.271 491.981C635.063 491.739 634.825 491.488 634.554 491.224C631.639 488.389 625.995 485.242 624.553 486.729C623.542 487.772 624.87 490.82 626.76 493.525C623.567 492.383 620.105 491.881 619.361 493.177C618.361 494.919 622.635 499.269 626.109 501.378C625.9 501.353 625.68 501.332 625.447 501.316C621.392 501.039 615.054 502.289 614.913 504.356C614.815 505.806 617.796 507.273 620.984 508.115C617.81 509.309 614.844 511.165 615.114 512.636C615.44 514.421 620.423 515.046 624.341 514.681C621.414 517.492 618.24 522.529 619.565 524.005C620.535 525.087 623.663 523.967 626.488 522.264C625.132 525.376 624.396 528.799 625.638 529.63C627.278 530.729 631.778 526.905 634.15 523.614C633.909 527.64 634.871 533.17 636.78 533.389C638.223 533.554 639.822 530.639 640.807 527.488C641.855 530.717 643.571 533.768 645.051 533.566C646.976 533.303 647.815 527.634 647.456 523.605C649.903 526.76 654.022 530.135 655.575 529.094C656.817 528.263 656.081 524.84 654.725 521.728C657.549 523.431 660.677 524.551 661.648 523.469C662.973 521.993 659.799 516.956 656.872 514.145C660.79 514.511 665.773 513.886 666.099 512.1C666.368 510.629 663.403 508.773 660.229 507.579ZM643.062 518.966C642.242 519.078 641.493 519.238 640.923 519.646C640.317 519.045 639.433 518.861 638.45 518.749C637.349 518.623 636.349 518.611 635.586 519.247C635.307 518.47 634.62 517.918 633.821 517.383C633.133 516.922 632.466 516.544 631.769 516.472C631.715 515.619 631.175 514.895 630.513 514.158C630.092 513.688 629.67 513.268 629.202 512.987C629.877 512.163 629.799 511.123 629.59 509.981C629.441 509.166 629.248 508.424 628.814 507.873C629.387 507.24 629.53 506.347 629.597 505.359C629.67 504.279 629.64 503.301 629.018 502.572C630.626 502.777 631.402 501.774 632.123 500.517C632.535 499.799 632.866 499.107 632.891 498.406C633.737 498.294 634.422 497.705 635.112 496.994C635.7 496.387 636.201 495.786 636.39 495.094C637.064 495.662 637.985 495.748 639.001 495.748C639.99 495.748 640.89 495.666 641.559 495.137C642.079 495.607 642.806 495.851 643.607 496.056C644.373 496.251 645.095 496.381 645.751 496.25C645.991 496.798 646.417 497.296 646.904 497.798C647.594 498.509 648.279 499.098 649.124 499.21C649.149 499.911 649.481 500.603 649.893 501.321C650.378 502.166 650.887 502.897 651.658 503.223C651.568 503.714 651.577 504.254 651.616 504.823C651.683 505.811 651.826 506.704 652.399 507.337C651.965 507.888 651.772 508.631 651.623 509.445C651.414 510.587 651.336 511.628 652.011 512.451C651.543 512.732 651.121 513.152 650.7 513.622C650.038 514.359 649.498 515.083 649.443 515.936C648.746 516.009 648.08 516.387 647.392 516.847C646.453 517.476 645.671 518.128 645.521 519.14C644.816 518.797 643.973 518.842 643.062 518.966Z" fill="#58A3C1"/>
<path d="M640.874 520.931C648.263 520.931 654.254 514.934 654.254 507.536C654.254 500.137 648.263 494.14 640.874 494.14C633.485 494.14 627.494 500.137 627.494 507.536C627.494 514.934 633.485 520.931 640.874 520.931Z" fill="#3F3D56"/>
<path d="M417.669 628.662C411.21 636.409 409.967 646.026 414.892 650.141C419.818 654.256 429.045 651.31 435.506 643.559C438.129 640.498 439.982 636.853 440.909 632.928L467.864 599.755L454.734 589.117L427.152 621.435C423.46 623.051 420.208 625.529 417.669 628.662Z" fill="#FFB6B6"/>
<path d="M535.468 464.7L544.849 501.903L498.934 575.487L452.061 622.651L436.869 610.032L484.141 551.145L519.973 475.271L535.468 464.7Z" fill="#E6E6E6"/>
<path d="M486.042 403.216C493.123 403.199 493.525 403.246 494.67 403.216C503.453 402.984 505.749 399.525 510.201 399.761C518.146 400.182 507.66 440.064 503.298 458.502C499.021 476.585 513.476 492.788 514.515 493.919C529.188 509.895 554.96 512.816 559.382 506.013C562.962 500.506 550.276 492.133 553.342 480.098C556.34 468.333 570.181 469.585 574.05 458.502C578.102 446.895 564.486 441.04 555.931 412.718C551.018 396.453 551.887 393.422 547.303 383.348C535.049 356.42 474.985 367.885 481.728 392.85C483.032 397.679 479.561 403.232 486.042 403.216Z" fill="#2F2E41"/>
</g>
<defs>
<clipPath id="clip0_279_9223">
<rect width="670" height="652" fill="white"/>
</clipPath>
</defs>
</svg>
