<svg width="728" height="496" viewBox="0 0 728 496" fill="none" xmlns="http://www.w3.org/2000/svg">
<g clip-path="url(#clip0_279_34893)">
<path d="M165.351 12.8893C168.912 12.8893 171.798 10.004 171.798 6.44467C171.798 2.88538 168.912 0 165.351 0C161.791 0 158.905 2.88538 158.905 6.44467C158.905 10.004 161.791 12.8893 165.351 12.8893Z" fill="#E6E6E6"/>
<path d="M197.984 12.8893C201.544 12.8893 204.431 10.004 204.431 6.44467C204.431 2.88538 201.544 0 197.984 0C194.424 0 191.537 2.88538 191.537 6.44467C191.537 10.004 194.424 12.8893 197.984 12.8893Z" fill="#E6E6E6"/>
<path d="M230.617 12.8893C234.177 12.8893 237.063 10.004 237.063 6.44467C237.063 2.88538 234.177 0 230.617 0C227.056 0 224.17 2.88538 224.17 6.44467C224.17 10.004 227.056 12.8893 230.617 12.8893Z" fill="#E6E6E6"/>
<path d="M263.25 12.8893C266.81 12.8893 269.696 10.004 269.696 6.44467C269.696 2.88538 266.81 0 263.25 0C259.689 0 256.803 2.88538 256.803 6.44467C256.803 10.004 259.689 12.8893 263.25 12.8893Z" fill="#E6E6E6"/>
<path d="M295.882 12.8893C299.443 12.8893 302.329 10.004 302.329 6.44467C302.329 2.88538 299.443 0 295.882 0C292.322 0 289.436 2.88538 289.436 6.44467C289.436 10.004 292.322 12.8893 295.882 12.8893Z" fill="#E6E6E6"/>
<path d="M165.351 45.9216C168.912 45.9216 171.798 43.0362 171.798 39.4769C171.798 35.9176 168.912 33.0322 165.351 33.0322C161.791 33.0322 158.905 35.9176 158.905 39.4769C158.905 43.0362 161.791 45.9216 165.351 45.9216Z" fill="#E6E6E6"/>
<path d="M197.984 45.9216C201.544 45.9216 204.431 43.0362 204.431 39.4769C204.431 35.9176 201.544 33.0322 197.984 33.0322C194.424 33.0322 191.537 35.9176 191.537 39.4769C191.537 43.0362 194.424 45.9216 197.984 45.9216Z" fill="#E6E6E6"/>
<path d="M230.617 45.9216C234.177 45.9216 237.063 43.0362 237.063 39.4769C237.063 35.9176 234.177 33.0322 230.617 33.0322C227.056 33.0322 224.17 35.9176 224.17 39.4769C224.17 43.0362 227.056 45.9216 230.617 45.9216Z" fill="#E6E6E6"/>
<path d="M263.25 45.9216C266.81 45.9216 269.696 43.0362 269.696 39.4769C269.696 35.9176 266.81 33.0322 263.25 33.0322C259.689 33.0322 256.803 35.9176 256.803 39.4769C256.803 43.0362 259.689 45.9216 263.25 45.9216Z" fill="#58A3C1"/>
<path d="M295.882 45.9216C299.443 45.9216 302.329 43.0362 302.329 39.4769C302.329 35.9176 299.443 33.0322 295.882 33.0322C292.322 33.0322 289.436 35.9176 289.436 39.4769C289.436 43.0362 292.322 45.9216 295.882 45.9216Z" fill="#E6E6E6"/>
<path d="M361.148 45.9216C364.708 45.9216 367.594 43.0362 367.594 39.4769C367.594 35.9176 364.708 33.0322 361.148 33.0322C357.587 33.0322 354.701 35.9176 354.701 39.4769C354.701 43.0362 357.587 45.9216 361.148 45.9216Z" fill="#E6E6E6"/>
<path d="M165.351 78.9538C168.912 78.9538 171.798 76.0684 171.798 72.5091C171.798 68.9498 168.912 66.0645 165.351 66.0645C161.791 66.0645 158.905 68.9498 158.905 72.5091C158.905 76.0684 161.791 78.9538 165.351 78.9538Z" fill="#E6E6E6"/>
<path d="M197.984 78.9538C201.544 78.9538 204.431 76.0684 204.431 72.5091C204.431 68.9498 201.544 66.0645 197.984 66.0645C194.424 66.0645 191.537 68.9498 191.537 72.5091C191.537 76.0684 194.424 78.9538 197.984 78.9538Z" fill="#E6E6E6"/>
<path d="M230.617 78.9538C234.177 78.9538 237.063 76.0684 237.063 72.5091C237.063 68.9498 234.177 66.0645 230.617 66.0645C227.056 66.0645 224.17 68.9498 224.17 72.5091C224.17 76.0684 227.056 78.9538 230.617 78.9538Z" fill="#E6E6E6"/>
<path d="M263.25 78.9538C266.81 78.9538 269.696 76.0684 269.696 72.5091C269.696 68.9498 266.81 66.0645 263.25 66.0645C259.689 66.0645 256.803 68.9498 256.803 72.5091C256.803 76.0684 259.689 78.9538 263.25 78.9538Z" fill="#E6E6E6"/>
<path d="M295.882 78.9538C299.443 78.9538 302.329 76.0684 302.329 72.5091C302.329 68.9498 299.443 66.0645 295.882 66.0645C292.322 66.0645 289.436 68.9498 289.436 72.5091C289.436 76.0684 292.322 78.9538 295.882 78.9538Z" fill="#E6E6E6"/>
<path d="M165.351 111.986C168.912 111.986 171.798 109.101 171.798 105.541C171.798 101.982 168.912 99.0967 165.351 99.0967C161.791 99.0967 158.905 101.982 158.905 105.541C158.905 109.101 161.791 111.986 165.351 111.986Z" fill="#E6E6E6"/>
<path d="M197.984 111.986C201.544 111.986 204.431 109.101 204.431 105.541C204.431 101.982 201.544 99.0967 197.984 99.0967C194.424 99.0967 191.537 101.982 191.537 105.541C191.537 109.101 194.424 111.986 197.984 111.986Z" fill="#E6E6E6"/>
<path d="M230.617 111.986C234.177 111.986 237.063 109.101 237.063 105.541C237.063 101.982 234.177 99.0967 230.617 99.0967C227.056 99.0967 224.17 101.982 224.17 105.541C224.17 109.101 227.056 111.986 230.617 111.986Z" fill="#E6E6E6"/>
<path d="M263.25 111.986C266.81 111.986 269.696 109.101 269.696 105.541C269.696 101.982 266.81 99.0967 263.25 99.0967C259.689 99.0967 256.803 101.982 256.803 105.541C256.803 109.101 259.689 111.986 263.25 111.986Z" fill="#E6E6E6"/>
<path d="M295.882 111.986C299.443 111.986 302.329 109.101 302.329 105.541C302.329 101.982 299.443 99.0967 295.882 99.0967C292.322 99.0967 289.436 101.982 289.436 105.541C289.436 109.101 292.322 111.986 295.882 111.986Z" fill="#E6E6E6"/>
<path d="M328.515 111.986C332.075 111.986 334.962 109.101 334.962 105.541C334.962 101.982 332.075 99.0967 328.515 99.0967C324.955 99.0967 322.068 101.982 322.068 105.541C322.068 109.101 324.955 111.986 328.515 111.986Z" fill="#E6E6E6"/>
<path d="M361.148 111.986C364.708 111.986 367.594 109.101 367.594 105.541C367.594 101.982 364.708 99.0967 361.148 99.0967C357.587 99.0967 354.701 101.982 354.701 105.541C354.701 109.101 357.587 111.986 361.148 111.986Z" fill="#E6E6E6"/>
<path d="M393.781 111.986C397.341 111.986 400.227 109.101 400.227 105.541C400.227 101.982 397.341 99.0967 393.781 99.0967C390.22 99.0967 387.334 101.982 387.334 105.541C387.334 109.101 390.22 111.986 393.781 111.986Z" fill="#E6E6E6"/>
<path d="M426.413 111.986C429.974 111.986 432.86 109.101 432.86 105.541C432.86 101.982 429.974 99.0967 426.413 99.0967C422.853 99.0967 419.967 101.982 419.967 105.541C419.967 109.101 422.853 111.986 426.413 111.986Z" fill="#E6E6E6"/>
<path d="M459.046 111.986C462.607 111.986 465.493 109.101 465.493 105.541C465.493 101.982 462.607 99.0967 459.046 99.0967C455.486 99.0967 452.599 101.982 452.599 105.541C452.599 109.101 455.486 111.986 459.046 111.986Z" fill="#E6E6E6"/>
<path d="M295.882 145.018C299.443 145.018 302.329 142.133 302.329 138.574C302.329 135.014 299.443 132.129 295.882 132.129C292.322 132.129 289.436 135.014 289.436 138.574C289.436 142.133 292.322 145.018 295.882 145.018Z" fill="#E6E6E6"/>
<path d="M328.515 145.018C332.075 145.018 334.962 142.133 334.962 138.574C334.962 135.014 332.075 132.129 328.515 132.129C324.955 132.129 322.068 135.014 322.068 138.574C322.068 142.133 324.955 145.018 328.515 145.018Z" fill="#58A3C1"/>
<path d="M361.148 145.018C364.708 145.018 367.594 142.133 367.594 138.574C367.594 135.014 364.708 132.129 361.148 132.129C357.587 132.129 354.701 135.014 354.701 138.574C354.701 142.133 357.587 145.018 361.148 145.018Z" fill="#E6E6E6"/>
<path d="M393.781 145.018C397.341 145.018 400.227 142.133 400.227 138.574C400.227 135.014 397.341 132.129 393.781 132.129C390.22 132.129 387.334 135.014 387.334 138.574C387.334 142.133 390.22 145.018 393.781 145.018Z" fill="#E6E6E6"/>
<path d="M426.413 145.018C429.974 145.018 432.86 142.133 432.86 138.574C432.86 135.014 429.974 132.129 426.413 132.129C422.853 132.129 419.967 135.014 419.967 138.574C419.967 142.133 422.853 145.018 426.413 145.018Z" fill="#E6E6E6"/>
<path d="M459.046 145.018C462.607 145.018 465.493 142.133 465.493 138.574C465.493 135.014 462.607 132.129 459.046 132.129C455.486 132.129 452.599 135.014 452.599 138.574C452.599 142.133 455.486 145.018 459.046 145.018Z" fill="#E6E6E6"/>
<path d="M295.882 178.05C299.443 178.05 302.329 175.165 302.329 171.606C302.329 168.047 299.443 165.161 295.882 165.161C292.322 165.161 289.436 168.047 289.436 171.606C289.436 175.165 292.322 178.05 295.882 178.05Z" fill="#E6E6E6"/>
<path d="M328.515 178.05C332.075 178.05 334.962 175.165 334.962 171.606C334.962 168.047 332.075 165.161 328.515 165.161C324.955 165.161 322.068 168.047 322.068 171.606C322.068 175.165 324.955 178.05 328.515 178.05Z" fill="#E6E6E6"/>
<path d="M361.148 178.05C364.708 178.05 367.594 175.165 367.594 171.606C367.594 168.047 364.708 165.161 361.148 165.161C357.587 165.161 354.701 168.047 354.701 171.606C354.701 175.165 357.587 178.05 361.148 178.05Z" fill="#E6E6E6"/>
<path d="M393.781 178.05C397.341 178.05 400.227 175.165 400.227 171.606C400.227 168.047 397.341 165.161 393.781 165.161C390.22 165.161 387.334 168.047 387.334 171.606C387.334 175.165 390.22 178.05 393.781 178.05Z" fill="#E6E6E6"/>
<path d="M426.413 178.05C429.974 178.05 432.86 175.165 432.86 171.606C432.86 168.047 429.974 165.161 426.413 165.161C422.853 165.161 419.967 168.047 419.967 171.606C419.967 175.165 422.853 178.05 426.413 178.05Z" fill="#58A3C1"/>
<path d="M459.046 178.05C462.607 178.05 465.493 175.165 465.493 171.606C465.493 168.047 462.607 165.161 459.046 165.161C455.486 165.161 452.599 168.047 452.599 171.606C452.599 175.165 455.486 178.05 459.046 178.05Z" fill="#E6E6E6"/>
<path d="M295.882 211.083C299.443 211.083 302.329 208.197 302.329 204.638C302.329 201.079 299.443 198.193 295.882 198.193C292.322 198.193 289.436 201.079 289.436 204.638C289.436 208.197 292.322 211.083 295.882 211.083Z" fill="#E6E6E6"/>
<path d="M328.515 211.083C332.075 211.083 334.962 208.197 334.962 204.638C334.962 201.079 332.075 198.193 328.515 198.193C324.955 198.193 322.068 201.079 322.068 204.638C322.068 208.197 324.955 211.083 328.515 211.083Z" fill="#E6E6E6"/>
<path d="M361.148 211.083C364.708 211.083 367.594 208.197 367.594 204.638C367.594 201.079 364.708 198.193 361.148 198.193C357.587 198.193 354.701 201.079 354.701 204.638C354.701 208.197 357.587 211.083 361.148 211.083Z" fill="#E6E6E6"/>
<path d="M393.781 211.083C397.341 211.083 400.227 208.197 400.227 204.638C400.227 201.079 397.341 198.193 393.781 198.193C390.22 198.193 387.334 201.079 387.334 204.638C387.334 208.197 390.22 211.083 393.781 211.083Z" fill="#E6E6E6"/>
<path d="M426.413 211.083C429.974 211.083 432.86 208.197 432.86 204.638C432.86 201.079 429.974 198.193 426.413 198.193C422.853 198.193 419.967 201.079 419.967 204.638C419.967 208.197 422.853 211.083 426.413 211.083Z" fill="#E6E6E6"/>
<path d="M459.046 211.083C462.607 211.083 465.493 208.197 465.493 204.638C465.493 201.079 462.607 198.193 459.046 198.193C455.486 198.193 452.599 201.079 452.599 204.638C452.599 208.197 455.486 211.083 459.046 211.083Z" fill="#E6E6E6"/>
<path d="M165.351 244.115C168.912 244.115 171.798 241.23 171.798 237.671C171.798 234.111 168.912 231.226 165.351 231.226C161.791 231.226 158.905 234.111 158.905 237.671C158.905 241.23 161.791 244.115 165.351 244.115Z" fill="#E6E6E6"/>
<path d="M197.984 244.115C201.544 244.115 204.431 241.23 204.431 237.671C204.431 234.111 201.544 231.226 197.984 231.226C194.424 231.226 191.537 234.111 191.537 237.671C191.537 241.23 194.424 244.115 197.984 244.115Z" fill="#E6E6E6"/>
<path d="M230.617 244.115C234.177 244.115 237.063 241.23 237.063 237.671C237.063 234.111 234.177 231.226 230.617 231.226C227.056 231.226 224.17 234.111 224.17 237.671C224.17 241.23 227.056 244.115 230.617 244.115Z" fill="#E6E6E6"/>
<path d="M263.25 244.115C266.81 244.115 269.696 241.23 269.696 237.671C269.696 234.111 266.81 231.226 263.25 231.226C259.689 231.226 256.803 234.111 256.803 237.671C256.803 241.23 259.689 244.115 263.25 244.115Z" fill="#E6E6E6"/>
<path d="M295.882 244.115C299.443 244.115 302.329 241.23 302.329 237.671C302.329 234.111 299.443 231.226 295.882 231.226C292.322 231.226 289.436 234.111 289.436 237.671C289.436 241.23 292.322 244.115 295.882 244.115Z" fill="#E6E6E6"/>
<path d="M328.515 244.115C332.075 244.115 334.962 241.23 334.962 237.671C334.962 234.111 332.075 231.226 328.515 231.226C324.955 231.226 322.068 234.111 322.068 237.671C322.068 241.23 324.955 244.115 328.515 244.115Z" fill="#E6E6E6"/>
<path d="M361.148 244.115C364.708 244.115 367.594 241.23 367.594 237.671C367.594 234.111 364.708 231.226 361.148 231.226C357.587 231.226 354.701 234.111 354.701 237.671C354.701 241.23 357.587 244.115 361.148 244.115Z" fill="#E6E6E6"/>
<path d="M393.781 244.115C397.341 244.115 400.227 241.23 400.227 237.671C400.227 234.111 397.341 231.226 393.781 231.226C390.22 231.226 387.334 234.111 387.334 237.671C387.334 241.23 390.22 244.115 393.781 244.115Z" fill="#E6E6E6"/>
<path d="M426.413 244.115C429.974 244.115 432.86 241.23 432.86 237.671C432.86 234.111 429.974 231.226 426.413 231.226C422.853 231.226 419.967 234.111 419.967 237.671C419.967 241.23 422.853 244.115 426.413 244.115Z" fill="#E6E6E6"/>
<path d="M459.046 244.115C462.607 244.115 465.493 241.23 465.493 237.671C465.493 234.111 462.607 231.226 459.046 231.226C455.486 231.226 452.599 234.111 452.599 237.671C452.599 241.23 455.486 244.115 459.046 244.115Z" fill="#E6E6E6"/>
<path d="M165.348 277.147C168.908 277.147 171.794 274.261 171.794 270.702C171.794 267.143 168.908 264.257 165.348 264.257C161.787 264.257 158.901 267.143 158.901 270.702C158.901 274.261 161.787 277.147 165.348 277.147Z" fill="#E6E6E6"/>
<path d="M197.984 277.148C201.544 277.148 204.431 274.262 204.431 270.703C204.431 267.144 201.544 264.258 197.984 264.258C194.424 264.258 191.537 267.144 191.537 270.703C191.537 274.262 194.424 277.148 197.984 277.148Z" fill="#E6E6E6"/>
<path d="M165.348 310.178C168.908 310.178 171.794 307.293 171.794 303.734C171.794 300.174 168.908 297.289 165.348 297.289C161.787 297.289 158.901 300.174 158.901 303.734C158.901 307.293 161.787 310.178 165.348 310.178Z" fill="#E6E6E6"/>
<path d="M197.984 310.18C201.544 310.18 204.431 307.294 204.431 303.735C204.431 300.176 201.544 297.291 197.984 297.291C194.424 297.291 191.537 300.176 191.537 303.735C191.537 307.294 194.424 310.18 197.984 310.18Z" fill="#E6E6E6"/>
<path d="M263.25 310.18C266.81 310.18 269.696 307.294 269.696 303.735C269.696 300.176 266.81 297.291 263.25 297.291C259.689 297.291 256.803 300.176 256.803 303.735C256.803 307.294 259.689 310.18 263.25 310.18Z" fill="#E6E6E6"/>
<path d="M588.523 76.0344H333.055C331.8 76.0329 330.598 75.5342 329.711 74.6475C328.824 73.7609 328.325 72.5588 328.324 71.3049V7.95356C328.325 6.69969 328.824 5.49759 329.711 4.61097C330.598 3.72435 331.8 3.22559 333.055 3.22412H588.523C589.777 3.22559 590.98 3.72435 591.867 4.61097C592.754 5.49759 593.253 6.69969 593.254 7.95356V71.305C593.253 72.5588 592.754 73.7609 591.867 74.6476C590.98 75.5342 589.777 76.0329 588.523 76.0344ZM333.055 5.1159C332.302 5.11672 331.581 5.41595 331.048 5.94794C330.516 6.47993 330.217 7.20122 330.216 7.95356V71.305C330.217 72.0573 330.516 72.7786 331.048 73.3106C331.581 73.8426 332.302 74.1418 333.055 74.1426H588.523C589.276 74.1418 589.997 73.8426 590.529 73.3106C591.062 72.7786 591.361 72.0573 591.362 71.305V7.95356C591.361 7.20122 591.062 6.47993 590.529 5.94794C589.997 5.41595 589.276 5.11672 588.523 5.1159H333.055Z" fill="#E6E6E6"/>
<path d="M366.171 59.4925C377.145 59.4925 386.04 50.5992 386.04 39.6288C386.04 28.6584 377.145 19.7651 366.171 19.7651C355.197 19.7651 346.301 28.6584 346.301 39.6288C346.301 50.5992 355.197 59.4925 366.171 59.4925Z" fill="#58A3C1"/>
<path d="M412.06 26.3862C411.182 26.3862 410.34 26.735 409.719 27.3559C409.098 27.9767 408.749 28.8188 408.749 29.6968C408.749 30.5749 409.098 31.4169 409.719 32.0378C410.34 32.6586 411.182 33.0074 412.06 33.0074H500.055C500.933 33.0074 501.776 32.6586 502.397 32.0378C503.018 31.4169 503.367 30.5749 503.367 29.6968C503.367 28.8188 503.018 27.9767 502.397 27.3559C501.776 26.735 500.933 26.3862 500.055 26.3862H412.06Z" fill="#E6E6E6"/>
<path d="M412.06 46.25C411.182 46.25 410.34 46.5988 409.719 47.2196C409.098 47.8405 408.749 48.6826 408.749 49.5606C408.749 50.4386 409.098 51.2807 409.719 51.9016C410.34 52.5224 411.182 52.8712 412.06 52.8712H568.18C569.058 52.8712 569.9 52.5224 570.521 51.9016C571.143 51.2807 571.491 50.4386 571.491 49.5606C571.491 48.6826 571.143 47.8405 570.521 47.2196C569.9 46.5988 569.058 46.25 568.18 46.25H412.06Z" fill="#E6E6E6"/>
<path d="M260.199 204.675H4.73089C3.47663 204.674 2.27417 204.175 1.38727 203.288C0.500378 202.402 0.00146991 201.199 0 199.946V136.594C0.00146991 135.34 0.500378 134.138 1.38727 133.252C2.27417 132.365 3.47663 131.866 4.73089 131.865H260.199C261.454 131.866 262.656 132.365 263.543 133.252C264.43 134.138 264.929 135.34 264.93 136.594V199.946C264.929 201.199 264.43 202.402 263.543 203.288C262.656 204.175 261.454 204.674 260.199 204.675ZM4.73089 133.757C3.97832 133.757 3.2568 134.057 2.72465 134.589C2.1925 135.121 1.89318 135.842 1.89236 136.594V199.946C1.89318 200.698 2.1925 201.419 2.72465 201.951C3.2568 202.483 3.97832 202.782 4.73089 202.783H260.199C260.952 202.782 261.673 202.483 262.206 201.951C262.738 201.419 263.037 200.698 263.038 199.946V136.594C263.037 135.842 262.738 135.121 262.206 134.589C261.673 134.057 260.952 133.757 260.199 133.757H4.73089Z" fill="#E6E6E6"/>
<path d="M37.8472 188.133C48.8209 188.133 57.7169 179.24 57.7169 168.269C57.7169 157.299 48.8209 148.406 37.8472 148.406C26.8734 148.406 17.9774 157.299 17.9774 168.269C17.9774 179.24 26.8734 188.133 37.8472 188.133Z" fill="#58A3C1"/>
<path d="M83.7367 155.027C82.8584 155.027 82.016 155.376 81.395 155.997C80.7739 156.618 80.425 157.46 80.425 158.338C80.425 159.216 80.7739 160.058 81.395 160.679C82.016 161.3 82.8584 161.649 83.7367 161.649H175.516C176.394 161.649 177.237 161.3 177.858 160.679C178.479 160.058 178.828 159.216 178.828 158.338C178.828 157.46 178.479 156.618 177.858 155.997C177.237 155.376 176.394 155.027 175.516 155.027H83.7367Z" fill="#E6E6E6"/>
<path d="M83.7367 174.891C82.8584 174.891 82.016 175.239 81.395 175.86C80.7739 176.481 80.425 177.323 80.425 178.201C80.425 179.079 80.7739 179.921 81.395 180.542C82.016 181.163 82.8584 181.512 83.7367 181.512H239.856C240.734 181.512 241.577 181.163 242.198 180.542C242.819 179.921 243.168 179.079 243.168 178.201C243.168 177.323 242.819 176.481 242.198 175.86C241.577 175.239 240.734 174.891 239.856 174.891H83.7367Z" fill="#E6E6E6"/>
<path d="M491.067 343.72H235.598C234.344 343.719 233.142 343.22 232.255 342.334C231.368 341.447 230.869 340.245 230.867 338.991V275.64C230.869 274.386 231.368 273.184 232.255 272.297C233.142 271.41 234.344 270.912 235.598 270.91H491.067C492.321 270.912 493.523 271.41 494.41 272.297C495.297 273.184 495.796 274.386 495.798 275.64V338.991C495.796 340.245 495.297 341.447 494.41 342.334C493.523 343.22 492.321 343.719 491.067 343.72ZM235.598 272.802C234.846 272.803 234.124 273.102 233.592 273.634C233.06 274.166 232.761 274.887 232.76 275.64V338.991C232.761 339.743 233.06 340.465 233.592 340.997C234.124 341.529 234.846 341.828 235.598 341.829H491.067C491.819 341.828 492.541 341.529 493.073 340.997C493.605 340.465 493.904 339.743 493.905 338.991V275.64C493.904 274.887 493.605 274.166 493.073 273.634C492.541 273.102 491.819 272.803 491.067 272.802H235.598Z" fill="#3F3D56"/>
<path d="M268.714 327.179C279.688 327.179 288.584 318.286 288.584 307.315C288.584 296.345 279.688 287.452 268.714 287.452C257.741 287.452 248.845 296.345 248.845 307.315C248.845 318.286 257.741 327.179 268.714 327.179Z" fill="#58A3C1"/>
<path d="M314.604 294.073C313.726 294.073 312.884 294.422 312.262 295.042C311.641 295.663 311.292 296.505 311.292 297.383C311.292 298.261 311.641 299.103 312.262 299.724C312.884 300.345 313.726 300.694 314.604 300.694H398.814C399.692 300.694 400.535 300.345 401.156 299.724C401.777 299.103 402.126 298.261 402.126 297.383C402.126 296.505 401.777 295.663 401.156 295.042C400.535 294.422 399.692 294.073 398.814 294.073H314.604Z" fill="#E6E6E6"/>
<path d="M314.604 313.937C313.726 313.937 312.884 314.285 312.262 314.906C311.641 315.527 311.292 316.369 311.292 317.247C311.292 318.125 311.641 318.967 312.262 319.588C312.884 320.209 313.726 320.558 314.604 320.558H470.723C471.602 320.558 472.444 320.209 473.065 319.588C473.686 318.967 474.035 318.125 474.035 317.247C474.035 316.369 473.686 315.527 473.065 314.906C472.444 314.285 471.602 313.937 470.723 313.937H314.604Z" fill="#E6E6E6"/>
<path d="M628.498 327.654C617.403 360.928 572.016 325.637 572.016 325.637L584.119 199.6C602.274 185.484 621.438 197.584 621.438 197.584L628.498 327.654Z" fill="#E6E6E6"/>
<path d="M626.115 439.325L641.58 439.488L637.717 484.053L626.117 484.054L626.115 439.325Z" fill="#FFB8B8"/>
<path d="M623.158 480.268H646.002C649.862 480.272 653.562 481.807 656.292 484.535C659.021 487.264 660.556 490.963 660.561 494.822V495.295H623.158V480.268Z" fill="#2F2E41"/>
<path d="M584.19 439.326L567.07 439.325L572.588 484.054L584.188 484.055L584.19 439.326Z" fill="#FFB8B8"/>
<path d="M549.743 495.294V494.821C549.743 490.961 551.277 487.259 554.008 484.53C556.738 481.801 560.441 480.267 564.302 480.268L587.147 480.269L587.146 495.296L549.743 495.294Z" fill="#2F2E41"/>
<path d="M625.071 476.334L604.811 358.265L586.039 474.812L567.02 475.868L561.949 319.715L562.331 319.63C565.475 318.926 639.479 302.677 651.611 325.922L651.673 326.04L641.547 476.865L625.071 476.334Z" fill="#2F2E41"/>
<path d="M603.599 184.83C616.433 184.83 626.838 174.429 626.838 161.598C626.838 148.768 616.433 138.366 603.599 138.366C590.764 138.366 580.36 148.768 580.36 161.598C580.36 174.429 590.764 184.83 603.599 184.83Z" fill="#FFB8B8"/>
<path d="M623.122 337.611C620.398 336.856 618.435 333.729 616.944 327.768C616.687 326.741 592.559 223.994 612.964 205.378L617.667 192.317L624.104 196.607C626.381 196.628 649.67 197.218 651.66 212.141C653.609 226.749 658.913 324.62 653.582 330.708C653.477 330.842 653.344 330.951 653.193 331.028C653.041 331.104 652.874 331.147 652.704 331.151C647.301 331.151 645.661 325.158 645.276 323.248C643.991 323.78 640.164 325.734 633.875 332.021C629.98 335.915 626.926 337.782 624.402 337.782C623.97 337.783 623.539 337.725 623.122 337.611Z" fill="#2F2E41"/>
<path d="M572.69 332.022C566.4 325.733 562.573 323.779 561.29 323.248C560.905 325.158 559.265 331.152 553.861 331.152C553.691 331.147 553.525 331.105 553.373 331.028C553.221 330.951 553.089 330.842 552.984 330.708C547.653 324.621 552.957 226.75 554.905 212.142C556.896 197.218 580.185 196.629 582.462 196.608L588.899 192.318L593.602 205.379C614.005 223.993 589.878 326.741 589.621 327.769C588.131 333.73 586.168 336.857 583.444 337.611C583.027 337.726 582.596 337.784 582.164 337.782C579.64 337.782 576.585 335.916 572.69 332.022Z" fill="#2F2E41"/>
<path d="M622.785 174.868C626.716 172.041 629.694 168.085 631.321 163.525C632.948 158.965 633.148 154.018 631.894 149.342C630.64 144.666 627.992 140.482 624.301 137.347C620.611 134.212 616.053 132.275 611.235 131.793C609.095 131.579 606.791 131.61 605.017 130.396C603.441 129.317 602.593 127.445 601.145 126.2C600.225 125.489 599.168 124.975 598.04 124.691C596.913 124.407 595.739 124.358 594.591 124.549C592.301 124.943 590.082 125.672 588.004 126.712C582.851 129.009 577.373 131.836 575.028 136.966C572.997 141.409 573.893 146.889 576.769 150.839C579.792 154.749 584.2 157.351 589.084 158.109C593.94 158.834 598.899 158.388 603.547 156.807C606.614 155.842 609.642 154.528 612.855 154.42C615.363 154.337 617.84 155 619.97 156.328C622.099 157.655 623.786 159.585 624.815 161.873C625.844 164.162 626.169 166.704 625.749 169.178C625.329 171.651 624.182 173.943 622.454 175.763" fill="#2F2E41"/>
<path d="M496.12 313.071C497.462 313.04 498.784 312.745 500.012 312.203C501.24 311.661 502.348 310.883 503.275 309.913C504.202 308.942 504.928 307.799 505.413 306.548C505.898 305.297 506.131 303.962 506.1 302.621L519.652 279.762L509.181 270.166L494.906 292.688C492.272 292.941 489.839 294.205 488.118 296.215C486.398 298.225 485.524 300.824 485.682 303.465C485.839 306.106 487.015 308.582 488.962 310.374C490.908 312.166 493.475 313.133 496.12 313.071Z" fill="#FFB8B8"/>
<path d="M653.349 338.114C654.473 337.381 655.442 336.434 656.2 335.327C656.958 334.22 657.491 332.974 657.768 331.662C658.044 330.349 658.06 328.994 657.813 327.676C657.566 326.357 657.062 325.1 656.329 323.976L655.81 297.409L641.853 294.762L641.58 321.424C639.474 323.026 638.071 325.381 637.668 327.996C637.264 330.61 637.89 333.279 639.415 335.442C640.939 337.604 643.244 339.09 645.842 339.589C648.441 340.087 651.132 339.558 653.349 338.114Z" fill="#FFB8B8"/>
<path d="M500.243 276.316L500.085 276.065L500.242 275.814C520.569 243.182 563.237 202.419 563.666 202.011L563.801 201.883L569.071 201.829L574.768 216.017C572.994 219.428 525.192 286.117 518.88 290.54C518.377 290.888 517.807 291.126 517.207 291.239C516.606 291.352 515.988 291.338 515.394 291.196C514.342 290.954 513.341 290.528 512.437 289.938C506.612 286.331 500.541 276.788 500.243 276.316Z" fill="#2F2E41"/>
<path d="M639.198 313.553C638.631 313.36 638.111 313.051 637.67 312.646C637.23 312.242 636.877 311.75 636.636 311.203C633.593 304.104 646.637 214.436 647.194 210.623L647.299 209.901L651.709 212.695L651.752 212.885C651.882 213.458 664.726 270.581 661.245 308.539L661.22 308.81L660.972 308.925C660.442 309.171 649.743 314.083 642.613 314.083C641.452 314.113 640.295 313.934 639.198 313.553Z" fill="#2F2E41"/>
<path d="M727.054 496H475.37C475.12 496 474.879 495.901 474.701 495.723C474.524 495.546 474.424 495.305 474.424 495.054C474.424 494.803 474.524 494.563 474.701 494.385C474.879 494.208 475.12 494.108 475.37 494.108H727.054C727.305 494.108 727.545 494.208 727.723 494.385C727.9 494.563 728 494.803 728 495.054C728 495.305 727.9 495.546 727.723 495.723C727.545 495.901 727.305 496 727.054 496Z" fill="#3F3D56"/>
</g>
<defs>
<clipPath id="clip0_279_34893">
<rect width="728" height="496" fill="white"/>
</clipPath>
</defs>
</svg>
