<svg width="16" height="17" viewBox="0 0 16 17" fill="none" xmlns="http://www.w3.org/2000/svg">
<path d="M5.50004 12.6667V13.5C5.50004 14.163 5.76343 14.7989 6.23227 15.2678C6.70111 15.7366 7.337 16 8.00004 16C8.66308 16 9.29897 15.7366 9.76781 15.2678C10.2366 14.7989 10.5 14.163 10.5 13.5V12.6667M6.33337 2.66667C6.33337 2.22464 6.50897 1.80072 6.82153 1.48816C7.13409 1.17559 7.55801 1 8.00004 1C8.44207 1 8.86599 1.17559 9.17855 1.48816C9.49111 1.80072 9.66671 2.22464 9.66671 2.66667C10.6237 3.11919 11.4395 3.82361 12.0267 4.70442C12.614 5.58523 12.9504 6.60923 13 7.66667V10.1667C13.0628 10.6848 13.2462 11.1809 13.5357 11.6151C13.8252 12.0493 14.2126 12.4095 14.6667 12.6667H1.33337C1.78749 12.4095 2.17488 12.0493 2.46436 11.6151C2.75385 11.1809 2.93733 10.6848 3.00004 10.1667V7.66667C3.04967 6.60923 3.38612 5.58523 3.97333 4.70442C4.56054 3.82361 5.37637 3.11919 6.33337 2.66667Z" stroke="#C3D4CD" stroke-linecap="round" stroke-linejoin="round"/>
</svg>
