<svg width="21" height="21" viewBox="0 0 21 21" fill="none" xmlns="http://www.w3.org/2000/svg">
<path d="M14.5 6.74967V6.75801M4.08337 7.16634C4.08337 6.28229 4.43456 5.43444 5.05968 4.80932C5.68481 4.1842 6.53265 3.83301 7.41671 3.83301H14.0834C14.9674 3.83301 15.8153 4.1842 16.4404 4.80932C17.0655 5.43444 17.4167 6.28229 17.4167 7.16634V13.833C17.4167 14.7171 17.0655 15.5649 16.4404 16.19C15.8153 16.8152 14.9674 17.1663 14.0834 17.1663H7.41671C6.53265 17.1663 5.68481 16.8152 5.05968 16.19C4.43456 15.5649 4.08337 14.7171 4.08337 13.833V7.16634ZM8.25004 10.4997C8.25004 11.1627 8.51343 11.7986 8.98227 12.2674C9.45111 12.7363 10.087 12.9997 10.75 12.9997C11.4131 12.9997 12.049 12.7363 12.5178 12.2674C12.9866 11.7986 13.25 11.1627 13.25 10.4997C13.25 9.83663 12.9866 9.20075 12.5178 8.73191C12.049 8.26307 11.4131 7.99967 10.75 7.99967C10.087 7.99967 9.45111 8.26307 8.98227 8.73191C8.51343 9.20075 8.25004 9.83663 8.25004 10.4997Z" stroke="#181916" stroke-linecap="round" stroke-linejoin="round"/>
</svg>
