<svg width="21" height="21" viewBox="0 0 21 21" fill="none" xmlns="http://www.w3.org/2000/svg">
<path d="M7.41671 9.66634V13.833M7.41671 7.16634V7.17467M10.75 13.833V9.66634M14.0834 13.833V11.333C14.0834 10.891 13.9078 10.4671 13.5952 10.1545C13.2827 9.84194 12.8587 9.66634 12.4167 9.66634C11.9747 9.66634 11.5508 9.84194 11.2382 10.1545C10.9256 10.4671 10.75 10.891 10.75 11.333M4.08337 5.49967C4.08337 5.05765 4.25897 4.63372 4.57153 4.32116C4.88409 4.0086 5.30801 3.83301 5.75004 3.83301H15.75C16.1921 3.83301 16.616 4.0086 16.9286 4.32116C17.2411 4.63372 17.4167 5.05765 17.4167 5.49967V15.4997C17.4167 15.9417 17.2411 16.3656 16.9286 16.6782C16.616 16.9907 16.1921 17.1663 15.75 17.1663H5.75004C5.30801 17.1663 4.88409 16.9907 4.57153 16.6782C4.25897 16.3656 4.08337 15.9417 4.08337 15.4997V5.49967Z" stroke="#181916" stroke-linecap="square"/>
</svg>
