<svg width="20" height="21" viewBox="0 0 20 21" fill="none" xmlns="http://www.w3.org/2000/svg">
<mask id="path-1-inside-1_462_1103" fill="white">
<path d="M6.66667 6.33333C6.66667 7.21739 7.01786 8.06523 7.64298 8.69036C8.2681 9.31548 9.11594 9.66667 10 9.66667C10.8841 9.66667 11.7319 9.31548 12.357 8.69036C12.9821 8.06523 13.3333 7.21739 13.3333 6.33333C13.3333 5.44928 12.9821 4.60143 12.357 3.97631C11.7319 3.35119 10.8841 3 10 3C9.11594 3 8.2681 3.35119 7.64298 3.97631C7.01786 4.60143 6.66667 5.44928 6.66667 6.33333Z"/>
<path d="M5 18V16.3333C5 15.4493 5.35119 14.6014 5.97631 13.9763C6.60143 13.3512 7.44928 13 8.33333 13H11.6667C12.5507 13 13.3986 13.3512 14.0237 13.9763C14.6488 14.6014 15 15.4493 15 16.3333V18"/>
</mask>
<path d="M6.66667 6.33333H5.66667H6.66667ZM10 9.66667V10.6667V9.66667ZM13.3333 6.33333H14.3333H13.3333ZM10 3V2V3ZM4 18V19H6V18H4ZM8.33333 13V12V13ZM11.6667 13V12V13ZM14 18V19H16V18H14ZM5.66667 6.33333C5.66667 7.4826 6.12321 8.58481 6.93587 9.39746L8.35008 7.98325C7.9125 7.54566 7.66667 6.95217 7.66667 6.33333H5.66667ZM6.93587 9.39746C7.74853 10.2101 8.85073 10.6667 10 10.6667V8.66667C9.38116 8.66667 8.78767 8.42083 8.35008 7.98325L6.93587 9.39746ZM10 10.6667C11.1493 10.6667 12.2515 10.2101 13.0641 9.39746L11.6499 7.98325C11.2123 8.42083 10.6188 8.66667 10 8.66667V10.6667ZM13.0641 9.39746C13.8768 8.58481 14.3333 7.4826 14.3333 6.33333H12.3333C12.3333 6.95217 12.0875 7.54566 11.6499 7.98325L13.0641 9.39746ZM14.3333 6.33333C14.3333 5.18406 13.8768 4.08186 13.0641 3.2692L11.6499 4.68342C12.0875 5.121 12.3333 5.71449 12.3333 6.33333H14.3333ZM13.0641 3.2692C12.2515 2.45655 11.1493 2 10 2V4C10.6188 4 11.2123 4.24583 11.6499 4.68342L13.0641 3.2692ZM10 2C8.85073 2 7.74853 2.45655 6.93587 3.2692L8.35008 4.68342C8.78767 4.24583 9.38116 4 10 4V2ZM6.93587 3.2692C6.12321 4.08186 5.66667 5.18406 5.66667 6.33333H7.66667C7.66667 5.71449 7.9125 5.121 8.35008 4.68342L6.93587 3.2692ZM6 18V16.3333H4V18H6ZM6 16.3333C6 15.7145 6.24583 15.121 6.68342 14.6834L5.2692 13.2692C4.45655 14.0819 4 15.1841 4 16.3333H6ZM6.68342 14.6834C7.121 14.2458 7.7145 14 8.33333 14V12C7.18406 12 6.08186 12.4565 5.2692 13.2692L6.68342 14.6834ZM8.33333 14H11.6667V12H8.33333V14ZM11.6667 14C12.2855 14 12.879 14.2458 13.3166 14.6834L14.7308 13.2692C13.9181 12.4565 12.8159 12 11.6667 12V14ZM13.3166 14.6834C13.7542 15.121 14 15.7145 14 16.3333H16C16 15.1841 15.5435 14.0819 14.7308 13.2692L13.3166 14.6834ZM14 16.3333V18H16V16.3333H14Z" fill="#EAF1EB" mask="url(#path-1-inside-1_462_1103)"/>
</svg>
