<svg width="41" height="40" viewBox="0 0 41 40" fill="none" xmlns="http://www.w3.org/2000/svg">
<path d="M17.1666 18.3333H10.4999C10.0579 18.3333 9.63397 18.1577 9.32141 17.8452C9.00885 17.5326 8.83325 17.1087 8.83325 16.6667V11.6667C8.83325 11.2246 9.00885 10.8007 9.32141 10.4882C9.63397 10.1756 10.0579 10 10.4999 10H15.4999C15.9419 10 16.3659 10.1756 16.6784 10.4882C16.991 10.8007 17.1666 11.2246 17.1666 11.6667V21.6667C17.1666 26.1117 14.9449 28.8883 10.4999 30M32.1666 18.3333H25.4999C25.0579 18.3333 24.634 18.1577 24.3214 17.8452C24.0088 17.5326 23.8333 17.1087 23.8333 16.6667V11.6667C23.8333 11.2246 24.0088 10.8007 24.3214 10.4882C24.634 10.1756 25.0579 10 25.4999 10H30.4999C30.9419 10 31.3659 10.1756 31.6784 10.4882C31.991 10.8007 32.1666 11.2246 32.1666 11.6667V21.6667C32.1666 26.1117 29.9449 28.8883 25.4999 30" stroke="#58A3C1" stroke-width="2" stroke-linecap="square"/>
</svg>
