<svg width="728" height="630" viewBox="0 0 728 630" fill="none" xmlns="http://www.w3.org/2000/svg">
<g clip-path="url(#clip0_203_21537)">
<path d="M710.246 263.608C697.745 362.117 632.425 449.448 548.805 506.23C542.019 510.842 535.064 515.267 527.942 519.505C527.049 520.036 526.156 520.568 525.263 521.09C475.574 550.115 418.647 568.708 361.458 562.909C314.994 558.205 269.371 534.14 242.141 498.191C241.627 497.516 241.112 496.82 240.618 496.135C229.526 481.158 222.004 463.961 218.6 445.797C213.704 418.909 217.507 389.178 202.296 366.239C182.567 336.477 140.316 331.63 103.958 332.744C69.9741 333.777 36.0428 337.357 2.10101 339.218C1.40768 339.259 0.703838 339.29 0 339.331V23.2057C0.00760901 17.0534 2.52133 11.1553 6.9898 6.80497C11.4583 2.45466 17.5166 0.00740781 23.836 0H171.674C178.827 0.910227 183.891 14.8807 191.024 15.3409C194.112 15.5455 197.197 15.7091 200.279 15.8318C216.488 16.4864 232.676 16.2102 248.844 15.3409C258.288 14.8398 269.833 0.838636 279.266 0H552.25C554.289 0.654545 556.305 1.33977 558.322 2.04545C567.013 5.09447 575.503 8.66028 583.745 12.7227C674.676 57.6102 722.747 165.099 710.246 263.608Z" fill="#232D30"/>
<path d="M596.046 132.075C553.721 170.427 497.656 195.034 440.067 200.935C434.415 201.518 428.75 201.917 423.07 202.132C421.809 202.183 420.549 202.214 419.278 202.244C417.219 202.296 415.149 202.316 413.09 202.316C410.621 202.316 408.153 202.282 405.684 202.214C391.394 201.808 377.16 200.293 363.118 197.683C362.603 197.581 362.099 197.489 361.584 197.387C359.367 196.967 357.158 196.517 354.955 196.037C350.732 195.126 346.53 194.117 342.349 193.009C340.994 192.651 339.639 192.283 338.284 191.894C336.34 191.352 334.407 190.78 332.474 190.197C331.749 189.972 331.025 189.757 330.3 189.522C329.564 189.297 328.829 189.062 328.094 188.816C323.608 187.384 319.161 185.83 314.752 184.152C289.644 174.709 266.14 161.638 245.03 145.381C242.11 143.121 239.147 140.748 236.29 138.447C220.932 126.113 205.048 113.359 185.687 110.577C164.782 107.581 144.697 116.847 125.283 125.806C118.697 128.843 111.889 131.983 105.156 134.612C72.2843 147.217 36.0575 148.903 2.10101 139.408C1.39717 139.224 0.693333 139.019 0 138.815V136.677C0.693333 136.882 1.39717 137.087 2.10101 137.281C35.7729 146.824 71.7461 145.216 104.378 132.709C111.049 130.112 117.835 126.982 124.39 123.955C144.087 114.863 164.457 105.464 185.992 108.552C205.93 111.416 222.045 124.354 237.624 136.872C240.482 139.163 243.434 141.535 246.333 143.785C267.303 159.939 290.656 172.92 315.603 182.291H315.614C319.837 183.887 324.112 185.39 328.409 186.781C329.029 186.975 329.648 187.169 330.268 187.374C330.962 187.589 331.665 187.804 332.359 188.018C334.134 188.571 335.913 189.096 337.695 189.593C339.439 190.105 341.194 190.589 342.958 191.046H342.969C347.486 192.242 352.031 193.323 356.604 194.288C358.674 194.738 360.743 195.147 362.834 195.535C363.286 195.627 363.748 195.709 364.21 195.791C377.682 198.266 391.33 199.723 405.033 200.148H405.043C409.802 200.291 414.554 200.308 419.299 200.199C420.538 200.168 421.767 200.127 422.996 200.087C428.364 199.882 433.726 199.514 439.08 198.982H439.09C496.5 193.265 552.429 168.801 594.617 130.572C594.822 130.389 595.094 130.292 595.372 130.303C595.65 130.314 595.912 130.432 596.101 130.631C596.29 130.83 596.39 131.093 596.38 131.364C596.37 131.635 596.25 131.89 596.046 132.075Z" fill="#58A3C1"/>
<path d="M0.325204 93.0067C0.260631 93.2684 0.150647 93.5175 0 93.7431V90.8896C0.383069 91.5285 0.499502 92.2865 0.325204 93.0067Z" fill="#FF6584"/>
<path d="M8.61523 103.84C8.82601 102.004 7.93308 100.399 6.62082 100.256C5.30855 100.114 4.07388 101.487 3.8631 103.323C3.65232 105.16 4.54525 106.764 5.85751 106.907C7.16978 107.05 8.40445 105.677 8.61523 103.84Z" fill="#E6E6E6"/>
<path d="M11.5381 125.529C11.7489 123.693 10.8559 122.088 9.54366 121.945C8.2314 121.803 6.99673 123.176 6.78595 125.012C6.57517 126.849 7.4681 128.453 8.78036 128.596C10.0926 128.739 11.3273 127.366 11.5381 125.529Z" fill="#3F3D56"/>
<path d="M530.463 298.499C530.977 296.528 529.033 294.347 526.121 293.629C523.21 292.91 520.434 293.926 519.921 295.898C519.407 297.87 521.351 300.051 524.263 300.769C527.174 301.487 529.95 300.471 530.463 298.499Z" fill="#EAF1EB"/>
<path d="M494.911 298.276C495.424 296.304 493.48 294.123 490.569 293.405C487.657 292.687 484.881 293.703 484.368 295.675C483.855 297.646 485.799 299.827 488.71 300.545C491.621 301.263 494.397 300.247 494.911 298.276Z" fill="#3F3D56"/>
<path d="M537.135 327.216C537.648 325.244 535.704 323.063 532.793 322.345C529.882 321.627 527.106 322.643 526.592 324.614C526.079 326.586 528.023 328.767 530.934 329.485C533.846 330.203 536.622 329.187 537.135 327.216Z" fill="#FF6584"/>
<path d="M545.423 338.045C545.634 336.208 544.741 334.604 543.428 334.461C542.116 334.318 540.881 335.691 540.671 337.528C540.46 339.364 541.353 340.969 542.665 341.112C543.977 341.254 545.212 339.881 545.423 338.045Z" fill="#E6E6E6"/>
<path d="M548.347 359.734C548.557 357.897 547.665 356.293 546.352 356.15C545.04 356.007 543.805 357.38 543.595 359.217C543.384 361.053 544.277 362.658 545.589 362.8C546.901 362.943 548.136 361.57 548.347 359.734Z" fill="#3F3D56"/>
<path d="M511.999 318.399C512.21 316.562 511.317 314.958 510.005 314.815C508.692 314.672 507.458 316.045 507.247 317.882C507.036 319.718 507.929 321.323 509.241 321.466C510.554 321.608 511.788 320.235 511.999 318.399Z" fill="#E6E6E6"/>
<path d="M529.891 311.856C530.101 310.02 529.208 308.415 527.896 308.272C526.584 308.13 525.349 309.503 525.138 311.339C524.928 313.176 525.821 314.78 527.133 314.923C528.445 315.066 529.68 313.693 529.891 311.856Z" fill="#FF6584"/>
<path d="M507.849 294.176C508.059 292.34 507.166 290.735 505.854 290.592C504.542 290.45 503.307 291.823 503.096 293.659C502.886 295.496 503.779 297.1 505.091 297.243C506.403 297.386 507.638 296.013 507.849 294.176Z" fill="#3F3D56"/>
<path d="M52.4839 56.1126C52.9971 54.1408 51.0531 51.9602 48.1418 51.2419C45.2305 50.5236 42.4543 51.5397 41.941 53.5114C41.4278 55.4831 43.3718 57.6638 46.2831 58.3821C49.1945 59.1004 51.9706 58.0843 52.4839 56.1126Z" fill="#EAF1EB"/>
<path d="M16.9311 55.8894C17.4444 53.9177 15.5004 51.737 12.589 51.0187C9.67772 50.3004 6.90156 51.3166 6.38831 53.2883C5.87506 55.26 7.81907 57.4407 10.7304 58.159C13.6417 58.8773 16.4179 57.8611 16.9311 55.8894Z" fill="#3F3D56"/>
<path d="M59.1553 84.8294C59.6685 82.8576 57.7245 80.677 54.8132 79.9587C51.9018 79.2404 49.1257 80.2565 48.6124 82.2282C48.0992 84.1999 50.0432 86.3806 52.9545 87.0989C55.8658 87.8172 58.642 86.8011 59.1553 84.8294Z" fill="#FF6584"/>
<path d="M67.4434 95.658C67.6541 93.8215 66.7612 92.217 65.4489 92.0742C64.1367 91.9315 62.902 93.3045 62.6912 95.141C62.4804 96.9775 63.3734 98.582 64.6856 98.7248C65.9979 98.8675 67.2326 97.4945 67.4434 95.658Z" fill="#E6E6E6"/>
<path d="M70.3667 117.347C70.5775 115.51 69.6845 113.906 68.3723 113.763C67.06 113.62 65.8253 114.994 65.6146 116.83C65.4038 118.667 66.2967 120.271 67.609 120.414C68.9212 120.557 70.1559 119.183 70.3667 117.347Z" fill="#3F3D56"/>
<path d="M34.019 76.0125C34.2298 74.176 33.3369 72.5715 32.0246 72.4287C30.7124 72.286 29.4777 73.659 29.2669 75.4955C29.0561 77.332 29.9491 78.9365 31.2613 79.0793C32.5736 79.222 33.8083 77.849 34.019 76.0125Z" fill="#E6E6E6"/>
<path d="M51.9106 69.4685C52.1214 67.632 51.2285 66.0276 49.9162 65.8848C48.604 65.742 47.3693 67.1151 47.1585 68.9516C46.9477 70.7881 47.8407 72.3926 49.1529 72.5353C50.4652 72.6781 51.6999 71.305 51.9106 69.4685Z" fill="#FF6584"/>
<path d="M29.8686 51.7898C30.0794 49.9533 29.1865 48.3488 27.8742 48.2061C26.562 48.0633 25.3273 49.4364 25.1165 51.2729C24.9057 53.1094 25.7987 54.7139 27.1109 54.8566C28.4232 54.9994 29.6579 53.6263 29.8686 51.7898Z" fill="#3F3D56"/>
<path d="M166.371 202.598C168.692 202.598 170.573 200.766 170.573 198.507C170.573 196.248 168.692 194.416 166.371 194.416C164.051 194.416 162.169 196.248 162.169 198.507C162.169 200.766 164.051 202.598 166.371 202.598Z" fill="#EAF1EB"/>
<path d="M63.4218 241.462C64.5822 241.462 65.5228 240.546 65.5228 239.416C65.5228 238.286 64.5822 237.371 63.4218 237.371C62.2615 237.371 61.3208 238.286 61.3208 239.416C61.3208 240.546 62.2615 241.462 63.4218 241.462Z" fill="#EAF1EB"/>
<path d="M480.473 393.848C481.633 393.848 482.574 392.932 482.574 391.802C482.574 390.673 481.633 389.757 480.473 389.757C479.312 389.757 478.372 390.673 478.372 391.802C478.372 392.932 479.312 393.848 480.473 393.848Z" fill="#EAF1EB"/>
<path d="M209.442 299.757C210.603 299.757 211.543 298.841 211.543 297.711C211.543 296.582 210.603 295.666 209.442 295.666C208.282 295.666 207.341 296.582 207.341 297.711C207.341 298.841 208.282 299.757 209.442 299.757Z" fill="#EAF1EB"/>
<path d="M247.26 86.0069C248.421 86.0069 249.361 85.0911 249.361 83.9615C249.361 82.8318 248.421 81.916 247.26 81.916C246.1 81.916 245.159 82.8318 245.159 83.9615C245.159 85.0911 246.1 86.0069 247.26 86.0069Z" fill="#EAF1EB"/>
<path d="M590.775 164.757C591.935 164.757 592.876 163.841 592.876 162.711C592.876 161.582 591.935 160.666 590.775 160.666C589.614 160.666 588.674 161.582 588.674 162.711C588.674 163.841 589.614 164.757 590.775 164.757Z" fill="#EAF1EB"/>
<path d="M102.291 58.3932C103.451 58.3932 104.392 57.4774 104.392 56.3477C104.392 55.218 103.451 54.3022 102.291 54.3022C101.131 54.3022 100.19 55.218 100.19 56.3477C100.19 57.4774 101.131 58.3932 102.291 58.3932Z" fill="#EAF1EB"/>
<path d="M484.675 48.1662C486.995 48.1662 488.877 46.3346 488.877 44.0753C488.877 41.8159 486.995 39.9844 484.675 39.9844C482.354 39.9844 480.473 41.8159 480.473 44.0753C480.473 46.3346 482.354 48.1662 484.675 48.1662Z" fill="#EAF1EB"/>
<path d="M672.712 587.659H670.611C670.611 575.856 659.255 564.31 636.848 553.336C614.923 542.597 583.492 532.943 543.447 524.648C537.522 523.421 531.461 522.235 525.263 521.089C493.201 515.158 457.579 510.3 419.424 506.607C411.535 505.84 403.534 505.128 395.42 504.47C392.794 504.245 390.147 504.04 387.489 503.826C380.104 503.263 372.642 502.738 365.103 502.251C325.751 499.714 284.435 498.334 242.141 498.19C239.652 498.17 237.151 498.17 234.651 498.17C179.573 498.17 167.135 503.233 166.4 507.487C164.519 518.246 228.222 539.856 289.824 560.771C358.012 583.905 428.091 607.694 451.959 627.954C452.767 628.639 453.524 629.325 454.228 630H451.339C450.572 629.325 449.742 628.639 448.86 627.954C423.658 608.359 352.97 584.365 289.13 562.694C210.405 535.98 162.261 519.003 164.32 507.139C165.213 502.005 174.016 496.125 234.651 496.125C236.637 496.125 238.633 496.125 240.618 496.135C282.901 496.247 324.217 497.597 363.611 500.113C371.311 500.594 378.935 501.126 386.481 501.709C389.286 501.923 392.08 502.138 394.864 502.373C403.184 503.048 411.395 503.778 419.498 504.562C458.661 508.346 495.187 513.358 527.942 519.504C533.362 520.527 538.678 521.577 543.888 522.654C626.962 539.856 672.712 562.939 672.712 587.659Z" fill="#E6E6E6"/>
<path d="M640.149 582.729H638.048C638.048 573.995 601.398 564.643 546.839 564.643C492.28 564.643 455.629 573.994 455.629 582.729H453.528C453.528 570.127 500.971 562.598 546.839 562.598C592.706 562.598 640.149 570.127 640.149 582.729Z" fill="#E6E6E6"/>
<path d="M603.49 588.678H601.389C601.389 583.745 579.111 578.248 547.144 578.248C515.177 578.248 492.899 583.745 492.899 588.678H490.798C490.798 580.575 519.829 576.202 547.144 576.202C574.459 576.202 603.49 580.575 603.49 588.678Z" fill="#E6E6E6"/>
<path d="M378.573 137.143C401.781 137.143 420.594 118.828 420.594 96.2343C420.594 73.6408 401.781 55.3252 378.573 55.3252C355.366 55.3252 336.553 73.6408 336.553 96.2343C336.553 118.828 355.366 137.143 378.573 137.143Z" fill="#E3E3E3"/>
<path d="M372.271 140.212C395.478 140.212 414.291 121.896 414.291 99.3026C414.291 76.7092 395.478 58.3936 372.271 58.3936C349.064 58.3936 330.25 76.7092 330.25 99.3026C330.25 121.896 349.064 140.212 372.271 140.212Z" fill="#E3E3E3"/>
<path d="M418.492 547.2L379.106 547.198V546.714C379.107 542.755 380.722 538.96 383.597 536.161C386.472 533.362 390.371 531.789 394.436 531.789L401.632 526.476L415.055 531.79L418.493 531.79L418.492 547.2Z" fill="#E3E3E3"/>
<path d="M400.158 526.491L366.507 546.417L366.248 546.002C364.136 542.62 363.489 538.56 364.452 534.714C365.414 530.869 367.906 527.553 371.379 525.495L374.69 517.315L388.995 515.065L391.933 513.325L400.158 526.491Z" fill="#E3E3E3"/>
<path d="M423.293 417.851C423.115 419.078 422.852 423.251 422.547 429.326C421.066 458.78 418.492 532.938 418.492 532.938L402.451 528.08C402.451 528.08 383.374 472.055 386.526 441.374L384.256 430.696L380.37 412.451V412.441L368.53 356.876C368.53 356.876 365.936 371.93 365.726 375.459C365.515 378.987 363.414 380.01 362.364 380.01C357.101 380.01 358.719 379.1 359.486 384.162C360.042 387.803 355.483 408.677 352.878 420.091C351.869 424.529 351.155 427.536 351.155 427.536L355.609 436.884L392.534 514.407L378.573 521.688L322.875 441.322L317.381 433.396L316.205 424.509L306.939 354.585C306.939 354.585 304.05 346.679 306.939 346.475C309.839 346.26 311.477 347.15 310.658 344.153C309.839 341.146 326.647 291.033 326.647 291.033L413.839 309.442C413.839 309.442 422.432 326.071 419.091 333.987C415.74 341.903 421.833 403.205 418.356 405.926C414.889 408.646 412.652 406.468 417.442 411.142C418.175 411.886 419.039 412.496 419.995 412.942C422.957 414.251 424.134 412.124 423.293 417.851Z" fill="#E3E3E3"/>
<path d="M371.997 124.789C385.374 124.789 396.218 114.232 396.218 101.209C396.218 88.1864 385.374 77.6294 371.997 77.6294C358.621 77.6294 347.777 88.1864 347.777 101.209C347.777 114.232 358.621 124.789 371.997 124.789Z" fill="#A0616A"/>
<path d="M390.872 121.517L381.27 123.307C381.27 123.307 390.199 109.275 389.674 102.852C389.149 96.4296 381.963 94.1285 381.963 94.1285C381.963 94.1285 377.982 94.9671 373.79 95.4376C373.288 94.0615 372.637 92.7415 371.847 91.5001C371.691 93.1028 370.963 94.6014 369.788 95.7342C368.252 95.8626 366.705 95.6887 365.239 95.2228C363.579 94.4865 363.611 93.2081 364.157 92.0115C358.747 92.4461 353.468 93.8577 348.589 96.174C348.347 93.0341 348.471 89.8778 348.956 86.7649C349.188 86.7035 349.419 86.632 349.65 86.5603C351.082 86.1194 352.462 85.5332 353.768 84.8115C352.314 84.6237 350.956 84.002 349.881 83.0319C350.763 80.516 352.171 78.3376 354.388 77.274C356.526 76.2557 358.864 75.6968 361.244 75.6351C363.624 75.5733 365.989 76.0101 368.181 76.916C368.181 76.916 363.044 73.2649 364.935 71.7717C365.061 71.8944 365.187 72.0069 365.323 72.1194C365.502 72.2625 365.701 72.416 365.891 72.5592C367.057 73.4796 368.8 72.1808 369.032 70.7899C369.056 70.6142 369.092 70.4401 369.137 70.2683C369.168 70.1251 369.21 69.9819 369.252 69.849C369.288 69.731 369.33 69.6149 369.378 69.5012C372.876 68.6831 383.455 72.0069 387.521 79.3296C387.521 79.3296 415.937 92.6251 390.872 121.517Z" fill="#3F3D56"/>
<path d="M382.098 331.748C381.748 329.392 382.355 326.997 383.791 325.071C385.228 323.145 387.379 321.841 389.788 321.435C390.279 321.361 390.776 321.325 391.273 321.33L416.597 264.076L433.97 276.774L400.145 331.014C399.965 333.018 399.108 334.908 397.708 336.389C396.308 337.869 394.444 338.857 392.407 339.198C391.246 339.381 390.059 339.34 388.915 339.076C387.77 338.813 386.69 338.333 385.736 337.663C384.782 336.993 383.973 336.147 383.355 335.173C382.737 334.199 382.322 333.115 382.134 331.985C382.121 331.906 382.109 331.827 382.098 331.748Z" fill="#58A3C1"/>
<path d="M311.156 336.416C312.86 334.709 313.813 332.423 313.812 330.043C313.811 327.663 312.856 325.377 311.15 323.672C310.798 323.331 310.417 323.018 310.012 322.738L324.041 261.916L302.32 262.265L296.99 325.505C295.927 327.231 295.481 329.251 295.721 331.249C295.961 333.248 296.874 335.113 298.318 336.553C299.147 337.365 300.133 338.01 301.218 338.451C302.304 338.892 303.468 339.121 304.644 339.124C305.82 339.127 306.985 338.905 308.073 338.469C309.161 338.034 310.15 337.394 310.984 336.587C311.042 336.531 311.1 336.474 311.156 336.416Z" fill="#58A3C1"/>
<path d="M451.132 234.599C447.981 238.69 443.779 234.078 447.981 239.968C450.87 244.018 434.314 281.982 423.714 305.239C418.924 315.763 415.341 323.28 415.341 323.28L397.472 313.206L395.382 312.03C395.382 312.03 411.77 271.878 417.043 257.447C417.915 255.054 418.493 253.366 418.63 252.691C419.617 247.895 419.743 243.783 418.63 242.259C418.366 241.691 418.142 241.107 417.957 240.51C415.846 234.487 409.417 214.145 403.397 194.907C401.643 189.262 399.91 183.718 398.334 178.656C394.289 165.657 391.253 155.849 391.253 155.849L415.415 156.872C415.415 156.872 415.814 157.526 416.518 158.713C418.199 161.535 421.645 167.355 425.636 174.35C428.515 179.382 431.687 185.038 434.681 190.601C442.308 204.756 448.874 218.389 446.93 220.281C442.728 224.372 438.432 222.05 443.726 227.297C449.031 232.554 454.284 230.508 451.132 234.599Z" fill="#E3E3E3"/>
<path d="M422.239 288.988C415.936 282.913 417.102 255.228 417.102 255.228C417.102 255.228 423.374 162.262 414.886 156.034C409.017 151.91 402.772 148.319 396.229 145.305C395.851 145.142 395.651 145.05 395.651 145.05L390.231 130.169L356.835 128.481L351.005 139.506C351.005 139.506 350.091 139.568 348.662 139.762C343.326 140.478 330.782 143.014 331.896 150.92C333.304 160.943 323.366 222.501 320.34 225.579C317.315 228.658 318.113 239.908 325.593 247.056C333.073 254.205 327.694 273.647 322.441 281.829C319.289 286.837 317.834 292.683 318.281 298.54C318.281 298.54 322.441 320.693 332.946 313.534C336.949 310.803 342.632 310.455 349.471 310.957C349.538 310.961 349.61 310.97 349.677 310.975L349.471 311.979C358.967 312.664 370.702 314.986 383.255 314.853L382.883 313.826C383.008 313.825 383.13 313.832 383.255 313.83C385.377 313.81 387.51 313.718 389.674 313.534C408.394 311.949 416.661 316.96 419.088 311.488C421.515 306.017 428.542 295.063 422.239 288.988Z" fill="#E3E3E3"/>
<path opacity="0.3" d="M372.271 129.984C389.676 129.984 403.786 116.248 403.786 99.3024C403.786 82.3573 389.676 68.6206 372.271 68.6206C354.865 68.6206 340.755 82.3573 340.755 99.3024C340.755 116.248 354.865 129.984 372.271 129.984Z" fill="#58A3C1"/>
<path d="M357.112 145.622C357.112 145.622 352.322 161.106 346.744 178.973C344.989 184.598 343.151 190.458 341.365 196.155C335.535 214.676 330.219 231.367 329.725 232.032C328.612 233.556 328.748 237.667 329.725 242.464C329.925 243.425 329.473 247.168 328.622 252.538C327.509 259.584 325.712 269.423 323.801 279.466C322.277 287.494 320.681 295.645 319.304 302.59C317.151 313.369 315.544 321.234 315.544 321.234H295.584C295.584 321.234 299.334 239.713 303.536 233.832C307.738 227.941 303.536 232.554 300.385 228.463C297.233 224.372 302.486 226.417 307.78 221.16C313.075 215.914 308.789 218.235 304.587 214.144C303.032 212.631 306.509 202.986 311.51 191.44C313.842 186.081 316.5 180.302 319.126 174.739C324.557 163.254 329.883 152.689 331.995 148.516C331.995 148.506 332.005 148.496 332.005 148.485L332.95 146.644L357.112 145.622Z" fill="#E3E3E3"/>
<path d="M400.634 149.416C378.7 157.71 358.98 159.14 342.856 149.416V131.007C361.846 142.1 381.112 141.796 400.634 131.007V149.416Z" fill="#3F3D56"/>
<path d="M417.442 267.03C383.545 275.324 353.068 276.754 328.149 267.03V248.621C357.497 259.714 387.273 259.41 417.442 248.621V267.03Z" fill="#3F3D56"/>
<path d="M423.293 417.851C423.115 419.078 422.852 423.251 422.547 429.326C409.891 431.322 397.029 431.783 384.257 430.696L380.37 412.451C393.456 414.777 406.852 414.943 419.995 412.942C422.957 414.251 424.134 412.123 423.293 417.851Z" fill="#3F3D56"/>
<path d="M355.61 436.884C344.839 439.217 333.892 440.701 322.876 441.322L317.382 433.396L316.205 424.509C328.587 424.819 340.948 423.33 352.878 420.09C351.87 424.529 351.155 427.536 351.155 427.536L355.61 436.884Z" fill="#3F3D56"/>
<path d="M358.614 188.279C358.614 190.991 357.507 193.593 355.537 195.511C353.567 197.429 350.895 198.506 348.109 198.506C345.323 198.506 342.651 197.429 340.681 195.511C338.711 193.593 337.604 190.991 337.604 188.279C337.604 182.63 347.059 170.892 348.109 178.052C349.16 185.211 358.614 182.63 358.614 188.279Z" fill="#58A3C1"/>
<path d="M349.251 170.938C348.873 170.908 348.495 170.897 348.106 170.897C343.533 170.903 339.136 172.614 335.818 175.678C332.5 178.743 330.515 182.928 330.269 187.374C330.258 187.67 330.248 187.977 330.248 188.284C330.248 188.703 330.258 189.112 330.3 189.521C330.564 193.162 331.999 196.629 334.402 199.431C336.804 202.232 340.052 204.226 343.684 205.13C347.317 206.033 351.149 205.8 354.637 204.463C358.125 203.126 361.093 200.754 363.118 197.683C363.525 197.076 363.89 196.444 364.21 195.791C365.473 193.226 366.07 190.399 365.949 187.558C365.828 184.716 364.993 181.947 363.516 179.494C362.039 177.04 359.966 174.977 357.479 173.485C354.992 171.994 352.166 171.119 349.251 170.938ZM361.584 197.386C359.937 199.315 357.878 200.872 355.55 201.949C353.223 203.027 350.683 203.598 348.106 203.625C344.269 203.619 340.566 202.253 337.688 199.781C334.811 197.31 332.958 193.902 332.475 190.196C332.39 189.562 332.348 188.923 332.349 188.284C332.347 188.195 332.35 188.106 332.359 188.018C332.431 183.997 334.122 180.165 337.067 177.346C340.012 174.527 343.976 172.945 348.106 172.943C348.201 173.188 348.295 173.424 348.4 173.649C352.886 183.978 362.614 183.201 363.864 188.284C364.469 190.741 364.101 193.33 362.834 195.535C362.478 196.189 362.06 196.809 361.584 197.386Z" fill="#58A3C1"/>
<path d="M704.164 0H23.836C17.5166 0.00740781 11.4583 2.45466 6.9898 6.80497C2.52133 11.1553 0.00760901 17.0534 0 23.2057V606.794C0.00760901 612.947 2.52133 618.845 6.9898 623.195C11.4583 627.545 17.5166 629.993 23.836 630H704.164C710.483 629.993 716.542 627.545 721.01 623.195C725.479 618.845 727.992 612.947 728 606.794V23.2057C727.992 17.0534 725.479 11.1553 721.01 6.80497C716.542 2.45466 710.483 0.00740781 704.164 0ZM725.899 606.794C725.893 612.405 723.601 617.783 719.526 621.75C715.452 625.717 709.927 627.949 704.164 627.955H23.836C18.0733 627.949 12.5484 625.717 8.47364 621.75C4.39884 617.783 2.107 612.405 2.10101 606.794V23.2057C2.10699 17.5954 4.39884 12.2166 8.47364 8.24958C12.5484 4.28253 18.0733 2.05128 23.836 2.04545H704.164C709.927 2.05128 715.452 4.28253 719.526 8.24958C723.601 12.2166 725.893 17.5954 725.899 23.2057V606.794Z" fill="#232D30"/>
</g>
<defs>
<clipPath id="clip0_203_21537">
<rect width="728" height="630" fill="white"/>
</clipPath>
</defs>
</svg>
